<?xml version="1.0" standalone="no"?>
<!DOCTYPE svg PUBLIC "-//W3C//DTD SVG 1.1//EN" "http://www.w3.org/Graphics/SVG/1.1/DTD/svg11.dtd" >
<svg xmlns="http://www.w3.org/2000/svg">
<metadata>
Created by FontForge 20120731 at Tue Mar 29 09:46:21 2016
 By Ads
</metadata>
<defs>
<font id="iconfont" horiz-adv-x="1024" >
  <font-face 
    font-family="iconfont"
    font-weight="500"
    font-stretch="normal"
    units-per-em="1024"
    panose-1="2 0 6 3 0 0 0 0 0 0"
    ascent="896"
    descent="-128"
    x-height="792"
    bbox="-0.226415 -224 1239 896"
    underline-thickness="50"
    underline-position="-100"
    unicode-range="U+0078-E6DA"
  />
<missing-glyph horiz-adv-x="374" 
d="M34 0v682h272v-682h-272zM68 34h204v614h-204v-614z" />
    <glyph glyph-name=".notdef" horiz-adv-x="374" 
d="M34 0v682h272v-682h-272zM68 34h204v614h-204v-614z" />
    <glyph glyph-name=".null" horiz-adv-x="0" 
 />
    <glyph glyph-name="nonmarkingreturn" horiz-adv-x="341" 
 />
    <glyph glyph-name="x" unicode="x" horiz-adv-x="1001" 
d="M281 543q-27 -1 -53 -1h-83q-18 0 -36.5 -6t-32.5 -18.5t-23 -32t-9 -45.5v-76h912v41q0 16 -0.5 30t-0.5 18q0 13 -5 29t-17 29.5t-31.5 22.5t-49.5 9h-133v-97h-438v97zM955 310v-52q0 -23 0.5 -52t0.5 -58t-10.5 -47.5t-26 -30t-33 -16t-31.5 -4.5q-14 -1 -29.5 -0.5
t-29.5 0.5h-32l-45 128h-439l-44 -128h-29h-34q-20 0 -45 1q-25 0 -41 9.5t-25.5 23t-13.5 29.5t-4 30v167h911zM163 247q-12 0 -21 -8.5t-9 -21.5t9 -21.5t21 -8.5q13 0 22 8.5t9 21.5t-9 21.5t-22 8.5zM316 123q-8 -26 -14 -48q-5 -19 -10.5 -37t-7.5 -25t-3 -15t1 -14.5
t9.5 -10.5t21.5 -4h37h67h81h80h64h36q23 0 34 12t2 38q-5 13 -9.5 30.5t-9.5 34.5q-5 19 -11 39h-368zM336 498v228q0 11 2.5 23t10 21.5t20.5 15.5t34 6h188q31 0 51.5 -14.5t20.5 -52.5v-227h-327z" />
    <glyph glyph-name="uniE600" unicode="&#xe600;" horiz-adv-x="1154" 
d="M780 768q74 0 141.5 -29t119.5 -79t82 -116t30 -141q0 -60 -19.5 -122.5t-46.5 -110.5q-13 -24 -37 -43t-51.5 -33.5t-54 -23t-45.5 -8.5h-715q-40 0 -73 13.5t-57.5 37t-38.5 57t-14 73.5q0 55 13.5 104t40.5 86t68.5 58.5t97.5 21.5q25 0 43 -3t34 -8.5t32 -15
t35 -21.5q10 62 43.5 117.5t87.5 97t125.5 65t158.5 23.5zM861 188q33 0 63 14.5t53.5 42t37.5 67.5t14 91.5t-18.5 95.5t-51 75.5t-77 49.5t-96 18t-90 -8t-66.5 -20.5t-47.5 -27.5t-32.5 -28q-14 -14 -27.5 -34t-23.5 -41.5t-15.5 -43t-2.5 -38.5q4 -29 -11 -49.5
t-39 -29.5t-51 -4t-44 25q-20 21 -46 32t-65 11q-31 0 -50.5 -12.5t-31 -30.5t-15.5 -40t-4 -42q0 -16 7 -29.5t19 -23t26 -15t29 -5.5h656z" />
    <glyph glyph-name="uniE601" unicode="&#xe601;" horiz-adv-x="1154" 
d="M780 896q74 0 141.5 -29t119.5 -79t82 -116t30 -140q0 -60 -19.5 -122.5t-46.5 -111.5q-13 -24 -37 -43t-51.5 -33t-54 -22.5t-45.5 -8.5h-715q-40 0 -73 13t-57.5 37t-38.5 57.5t-14 73.5q0 55 13.5 103.5t40.5 85.5t68.5 58.5t97.5 21.5q25 0 43 -3t34 -8.5t32 -15
t35 -21.5q10 63 44 118.5t88 96.5t125.5 64.5t157.5 23.5zM861 316q33 0 63 14.5t53.5 42t37.5 67.5t14 91.5t-18.5 95.5t-51 75.5t-77 49.5t-96 18t-90 -8t-66.5 -20.5t-47.5 -27.5t-32.5 -28q-14 -14 -27.5 -34t-23.5 -41.5t-15 -43t-3 -38.5q4 -29 -11 -49.5t-39 -29
t-51 -3.5t-44 25q-20 21 -46 31.5t-65 10.5q-31 0 -50.5 -12.5t-31 -30.5t-15.5 -40t-4 -42q0 -16 7 -29.5t19 -23t26 -15t29 -5.5h656zM192.5 127q26.5 0 45.5 -19t19 -46v-63q0 -27 -19 -46t-45.5 -19t-45.5 19t-19 46v63q0 27 19 46t45.5 19zM513 127q27 0 46 -19t19 -46
v-63q0 -27 -19 -46t-46 -19t-45.5 19t-18.5 46v63q0 27 18.5 46t45.5 19zM833.5 127q26.5 0 45.5 -19t19 -46v-63q0 -27 -19 -46t-45.5 -19t-45.5 19t-19 46v63q0 27 19 46t45.5 19z" />
    <glyph glyph-name="uniE602" unicode="&#xe602;" horiz-adv-x="1026" 
d="M105 560q30 -34 71.5 -46t90.5 -12q39 0 75 15t63 41.5t43 62t16 77.5q0 50 -11.5 93t-44.5 72q63 -26 103 -83.5t40 -131.5q0 -22 -3 -42q-81 -26 -132.5 -72.5t-67.5 -109.5q-25 26 -72 40t-107 9q-42 36 -64 87zM722 575q72 0 122.5 -17.5t84.5 -47t53 -67t28.5 -76.5
t12 -76t2.5 -66q0 -43 -19 -84t-55 -72t-87 -50.5t-115 -19.5h-515q-64 0 -108.5 17t-72.5 45t-40.5 65t-12.5 78t16 77t43 64t63.5 43.5t78.5 15.5q59 0 106.5 -30.5t72.5 -79.5q0 50 18.5 100t59 90.5t105.5 65.5t159 25z" />
    <glyph glyph-name="uniE603" unicode="&#xe603;" horiz-adv-x="1025" 
d="M513 613q47 0 89 -18t73 -49t49 -73t18 -89q0 -48 -18 -90t-49 -73t-73 -49t-89 -18q-48 0 -90 18t-73 49t-49 73t-18 90q0 47 18 89t49 73t73 49t90 18zM968 441q23 0 40 -16.5t17 -40.5t-17 -40.5t-40 -16.5h-108q-7 -44 -24 -82.5t-42 -72.5l81 -70q16 -16 16 -40
t-16 -40q-17 -17 -40.5 -17t-39.5 17l-71 80q-68 -52 -155 -65v-109q0 -23 -16 -39.5t-40 -16.5t-40.5 16.5t-16.5 39.5v109q-87 13 -155 65l-70 -80q-17 -17 -40.5 -17t-40.5 17q-16 16 -16 40t16 40l81 70q-51 68 -66 155h-108q-23 0 -40 16.5t-17 40.5t17 40.5t40 16.5
h108q15 87 66 155l-81 70q-16 16 -16 40t16 40q17 17 40.5 17t40.5 -17l70 -81q34 25 72.5 42t82.5 24v109q0 23 16.5 39.5t40.5 16.5t40 -16.5t16 -39.5v-109q44 -7 82.5 -24t72.5 -42l71 81q16 17 39.5 17t40.5 -17q16 -16 16 -40t-16 -40l-81 -70q25 -34 42 -72.5
t24 -82.5h108zM513 100q58 0 110 22.5t90.5 61t61 90t22.5 110.5q0 58 -22.5 110t-61 90.5t-90.5 61t-110 22.5q-59 0 -111 -22.5t-90 -61t-60.5 -90.5t-22.5 -110q0 -59 22.5 -110.5t60.5 -90t90 -61t111 -22.5z" />
    <glyph glyph-name="uniE604" unicode="&#xe604;" horiz-adv-x="1084" 
d="M1047 612q5 12 3.5 24t-6.5 22t-14 18t-20 11q-24 9 -45.5 -2t-29.5 -36q-24 -71 -69 -131t-98.5 -102.5t-121.5 -76.5t-130 -55t-132.5 -36.5t-120.5 -22.5t-102 -11t-69.5 -4.5t-30.5 -0.5h-1q-25 0 -42.5 -17t-17.5 -42t17 -42.5t43 -17.5h7q210 0 414 57
q223 62 367.5 180t198.5 285zM460 586q33 0 55.5 22t22.5 55v21q0 33 -22.5 55.5t-55.5 22.5q-12 0 -23 -4t-20.5 -11t-16.5 -16.5t-11 -21.5t-4 -25v-21q0 -32 22.5 -54.5t52.5 -22.5zM869 217q-31 0 -53.5 -23t-22.5 -54v-24q0 -20 10.5 -38t28 -28.5t37.5 -10.5
q32 0 55 23t23 54v24q0 31 -23 54t-55 23zM1024 363q-25 0 -43 -18.5t-18 -43.5v-10q0 -12 5 -23.5t13 -19.5t19.5 -12.5t23.5 -4.5q25 0 42 17.5t17 42.5v10q0 7 -1.5 13.5t-4.5 13t-7 11.5t-9 9.5t-11 7.5t-12.5 5t-13.5 2zM651 111q-12 0 -23.5 -6.5t-18.5 -18t-7 -24.5
v-12q0 -14 7 -25.5t18.5 -17.5t23.5 -6q14 0 25.5 6.5t18 17.5t6.5 25v12q0 20 -14.5 34.5t-35.5 14.5zM608 808q16 0 27 11t11 27v11q0 11 -5 20t-13.5 14t-19.5 5q-15 0 -26.5 -11t-11.5 -28v-11q0 -16 11.5 -27t26.5 -11zM290 615q10 0 19 4.5t14.5 13t5.5 18.5v13
q0 15 -12 27t-27 12q-16 0 -27.5 -12t-11.5 -27v-13q0 -10 5.5 -18.5t14 -13t19.5 -4.5zM272 414q24 0 41 18t17 42v14q0 24 -17 42t-41.5 18t-42 -18t-17.5 -42v-14q0 -36 32 -53q14 -7 28 -7zM613 552v-14q0 -14 11.5 -26t26.5 -12q8 0 15.5 3.5t12.5 8.5t8 12t3 14v14
q0 15 -11 26.5t-28 11.5q-15 0 -26.5 -11.5t-11.5 -26.5zM432 363q24 0 42 16.5t18 41.5v13q0 24 -18 42t-42 18q-16 0 -30.5 -8.5t-22.5 -22t-8 -29.5v-13q0 -16 8 -29.5t22 -21t31 -7.5zM768 622q21 0 38 10t27.5 28t10.5 40v22q0 32 -22.5 54t-53.5 22q-33 0 -55 -22
t-22 -54v-22q0 -34 22 -56t55 -22z" />
    <glyph glyph-name="uniE605" unicode="&#xe605;" horiz-adv-x="1238" 
d="M862 -30l-40 24l37 24q9 7 11.5 19.5t-4.5 22.5q-6 11 -18 13t-24 -5l-23 -15v30q0 13 -9.5 21t-22.5 8q-12 0 -21 -8.5t-9 -20.5v-36l-28 18q-7 5 -15.5 5t-15.5 -3.5t-11 -10.5q-7 -10 -4.5 -23t13.5 -20l34 -20l-40 -27q-11 -7 -13.5 -19.5t5.5 -22.5q9 -14 25 -14
q5 0 17 6l33 24v-37q0 -8 4.5 -15.5t11 -11.5t14.5 -4t15.5 4t12 11.5t4.5 15.5v33l28 -18q6 -4 16 -4q19 0 25 13q7 11 4.5 23.5t-12.5 19.5zM985 685q-4 0 -9 -0.5t-8.5 -1t-8.5 -1t-9 -1.5q-31 92 -120 153.5t-194 61.5h-2q-53 0 -99.5 -11t-81.5 -30.5t-64 -44
t-49.5 -54t-34.5 -58t-23 -58.5q-25 2 -36 2q-66 0 -122.5 -31t-91.5 -86v-2q-14 -27 -22.5 -60.5t-9 -75t21 -85t64.5 -75.5q40 -32 116 -32h1h814l12 1q14 3 29.5 8t33 13.5t34.5 20t33.5 26t30.5 33.5t24.5 40.5t16.5 48t6 56.5q0 66 -33.5 122t-91.5 88.5t-127 32.5z
M1010 306h-807h-1q-10 0 -21 1.5t-18.5 3t-10.5 3.5q-25 19 -35 44.5t-6 49.5t8.5 37.5t10.5 22.5q37 63 116 63q10 0 19.5 -1.5t15 -3.5t7.5 -3q29 -21 56 -8q32 12 35 46q0 4 2 15.5t8.5 32.5t16.5 43.5t30 46.5t45.5 42.5t65.5 30.5t88 12h1q34 0 67 -10t58.5 -27
t45.5 -39t31 -47t12 -48q0 -28 22 -45q12 -8 25 -9.5t26 2.5q34 12 62 12q63 0 102 -40t39 -91q0 -29 -10 -52.5t-23 -37.5t-31 -24.5t-29.5 -15t-22.5 -6.5zM479 104q-25 0 -42.5 -17.5t-17.5 -42.5v-102q0 -26 17.5 -44t43 -18t43.5 18t18 44v102q0 12 -5 23.5t-13 19.5
t-19.5 12.5t-24.5 4.5z" />
    <glyph glyph-name="uniE606" unicode="&#xe606;" horiz-adv-x="1239" 
d="M1169 609q-33 33 -74 51t-87 21q-23 4 -59 -2q-28 92 -117 154.5t-196 62.5h-1q-64 0 -118 -16.5t-92 -42t-68 -60t-47 -68.5t-27 -71q-19 3 -38 3q-64 0 -121 -31t-92 -84l-1 -4q-20 -36 -28.5 -82t9.5 -107.5t74 -103.5q40 -33 114 -33h1h2h203q22 0 37.5 15.5
t15.5 36.5q0 24 -15.5 39t-37.5 15h-203h-4q-37 0 -48 10q-26 20 -36.5 46t-7 50t8.5 39t10 23q13 21 30 35.5t34.5 20.5t30 8t24.5 2q28 0 43 -9q28 -21 54 -8q14 6 22.5 17.5t9.5 26.5q0 3 1 9l3 18q2 12 7 26t12 30.5t18 33t25 32.5t33.5 30t42.5 24.5t53.5 16.5t65.5 7
h1q43 0 84 -16.5t69.5 -42t46.5 -57t19 -61.5q1 -12 7 -23t15 -17q23 -16 47 -7q9 3 17 5t16 3.5t16 2t16 0.5q2 0 5.5 -0.5t7.5 -0.5h6q51 -5 84 -41q40 -39 40 -91q0 -25 -7 -46.5t-18.5 -36t-24.5 -25.5t-27 -18t-24 -10.5t-18 -5.5h-5v-1h-2v1h-6h-201h-7v-1
q-20 -2 -33 -16.5t-13 -36.5q0 -19 13.5 -34t32.5 -17v-1h7h201h6v1h2v-1h13q1 0 4 1h6q24 4 49.5 15t54.5 31t51.5 47t37.5 67t15 87q0 45 -19 89t-51 76zM513 221q9 -14 27 -14q10 1 17 6l19 12v-19q0 -6 2.5 -12t6.5 -10t9.5 -6t11.5 -2q4 0 8 1t7.5 3t6.5 4.5t5 6t3 7.5
t1 8v18l16 -10q8 -5 17 -5q7 0 13.5 4t12.5 11q2 3 3 6.5t1 6.5v7q0 3 -1.5 6t-3.5 6t-4.5 5.5t-5.5 4.5l-25 17l24 15q11 7 13 20t-5 22q-7 12 -19.5 14.5t-22.5 -4.5l-13 -9v16q0 13 -9 21t-22 8t-21.5 -8t-8.5 -21v-21l-16 10q-10 8 -23.5 5t-20.5 -14q-5 -10 -2 -23.5
t13 -19.5l22 -13l-28 -18q-9 -7 -12 -19t4 -23zM701 -19l-39 27l38 23q10 7 12.5 20.5t-4.5 23.5q-7 11 -20 13.5t-24 -5.5l-24 -16v30q0 13 -9 22.5t-23 9.5q-6 0 -11 -3t-9.5 -7t-7 -10t-2.5 -12v-35l-29 19q-6 3 -12 4t-11.5 -0.5t-10.5 -4.5t-8 -8q-12 -22 3 -39
q3 -3 6 -5l34 -21l-40 -29q-11 -7 -13 -18.5t5 -22.5q7 -13 23 -13q14 0 19 6l34 21v-36q0 -13 9 -22t21 -9q9 0 16.5 4t11.5 11t4 16v34l29 -18q3 -2 7.5 -3.5t7.5 -1.5q20 0 28 14q7 10 4 22.5t-15 18.5zM947 16l-26 15l24 16q7 6 9.5 17t-2.5 18q-6 10 -16.5 11.5
t-19.5 -4.5l-13 -8v15q0 8 -3.5 14t-9.5 9t-13 3t-12.5 -3t-9 -9t-3.5 -14v-19l-17 11q-5 3 -12 3.5t-13.5 -3t-9.5 -9.5q-5 -9 -3 -20t11 -15l21 -14l-25 -18q-9 -5 -11.5 -15.5t3.5 -19.5q9 -11 22 -11q8 0 14 4l20 14v-21q0 -10 7.5 -18t17.5 -8t18 8t8 18v19l16 -10
q2 -3 12 -3q16 0 23 10q6 10 3.5 20t-10.5 17zM399 16l-25 15l24 16q9 6 11.5 17t-3.5 18q-7 10 -17.5 11.5t-19.5 -4.5l-15 -8v15q0 12 -7 19t-17 7q-11 0 -19 -7t-8 -19v-19l-15 11q-6 3 -12.5 3.5t-12 -3t-9.5 -9.5q-6 -9 -4 -20t11 -15l21 -14l-26 -18q-9 -5 -11 -15.5
t5 -19.5q8 -11 20 -11q6 0 14 4l19 14v-21q0 -10 8 -18t19 -8q10 0 17 8t7 18v19l18 -10q4 -3 13 -3q4 0 7 0.5t6 2t5.5 3t4.5 4.5q6 10 3.5 20.5t-12.5 16.5z" />
    <glyph glyph-name="uniE607" unicode="&#xe607;" horiz-adv-x="1239" 
d="M719 -9l-39 26l37 24q10 7 12.5 20t-4.5 24t-19.5 13.5t-23.5 -4.5l-26 -18v31q0 13 -8.5 22.5t-21.5 9.5q-12 0 -21 -9.5t-9 -22.5v-35l-30 19q-10 7 -23 3.5t-20 -15.5q-3 -4 -4 -10.5t0.5 -12t5 -11t8.5 -9.5l34 -20l-39 -28q-11 -7 -13.5 -19.5t4.5 -23.5
q4 -6 10.5 -9.5t15.5 -3.5q4 0 8 1.5t8 3.5l35 24v-37q0 -13 8.5 -22t21.5 -9t21.5 9t8.5 22v35l31 -19q2 -2 5 -3t5.5 -1.5t5.5 -0.5q18 0 26 14q8 10 4.5 22.5t-14.5 19.5zM985 685q-17 0 -36 -3q-30 92 -118.5 153t-195.5 61h-1q-63 0 -117 -16t-91.5 -41t-67.5 -59.5
t-47.5 -68t-28.5 -70.5q-19 3 -36 3q-65 0 -121 -31t-92 -87l-1 -1q-14 -27 -22.5 -61t-9 -76t21 -85t64.5 -76q41 -32 116 -32h3h812q7 0 11 1q24 4 50 15t55 31.5t52 47t38 67t15 87.5q0 100 -74 170.5t-179 70.5zM1011 308h-806h-2h-1q-36 0 -47 9q-44 34 -40 91
q1 11 3.5 22t5 18.5l4.5 13.5l3 6q8 12 17 21.5t18 16t19 11.5t18 7.5t16.5 4t14.5 2t12 0.5q33 0 42 -10q26 -19 58 -6q14 6 23 19t10 28v1q1 9 3 18t9 32.5t17.5 43.5t30.5 44.5t45 41.5t64 28.5t86 11.5h1q57 0 106.5 -26.5t77.5 -65.5t30 -78q0 -29 23 -45q24 -16 52 -8
q6 3 12 4l12 4l12 2t12.5 2t12.5 1q61 0 100.5 -40t39.5 -89q0 -19 -4 -35t-11 -28.5t-15.5 -23t-18.5 -18t-19 -13t-19 -9.5t-16 -6t-11 -3z" />
    <glyph glyph-name="uniE608" unicode="&#xe608;" 
d="M609 317l-6 -1q-2 -1 -6 -1.5t-6.5 -1.5t-6 -2.5t-6 -3t-6 -3.5t-6 -4.5t-5.5 -6t-5 -7.5l-14 -23q-2 64 -48.5 99t-103.5 35q-112 0 -165 -138q-1 0 -1.5 0.5l-2.5 2.5l-4 2q-2 2 -4 4.5t-3.5 5t-2.5 6t-1 7t1.5 8t4.5 8.5q-29 1 -54 -7t-42.5 -23t-29.5 -35.5
t-17.5 -44t-5.5 -50.5q0 -65 46 -112.5t112 -47.5h324q25 0 48 4.5t41.5 12t34 18t27.5 23.5t21 27.5t15 30t9 31.5t3 32q1 48 -7.5 79t-27.5 47.5t-42 22.5t-58 6zM481 400q22 -9 38.5 -18.5t24 -17.5t11.5 -15t5 -11v-4q1 2 3.5 4t10 7.5t16.5 9.5t22.5 7t28 2.5t34 -6
t39.5 -17.5q2 -2 6.5 -5t15 -18t19 -35t15 -58t6.5 -84q28 27 44.5 71t16.5 87q0 82 -56 138t-135 56q-88 0 -146 -66q-11 -13 -19 -27zM666.5 541q6.5 0 11 4.5t4.5 11.5v63q0 7 -4.5 11.5t-11 4.5t-11 -4.5t-4.5 -11.5v-63q0 -7 4.5 -11.5t11 -4.5zM945 302h-62
q-6 0 -10.5 -4.5t-4.5 -11.5q0 -4 2 -8t5.5 -6t7.5 -2h62q5 0 8.5 2t5.5 6t2 8q0 7 -4.5 11.5t-11.5 4.5zM837.5 434q2.5 -6 9 -8t11.5 0l54 25q6 3 8 9.5t-0.5 12.5t-9 8t-11.5 -1l-54 -25q-6 -3 -8 -9t0.5 -12zM819 498l42 45q11 12 -1 22q-3 3 -7 4t-8 -0.5t-7 -4.5
l-42 -45q-2 -2 -3 -5t-1 -6t1.5 -6t3.5 -5q12 -11 22 1zM572 539q1 -5 4 -8t7 -4t8 0q7 2 10 7.5t1 12.5l-17 62q-1 3 -2.5 5.5t-4 4t-6 2t-6.5 -0.5q-6 -2 -9 -7.5t-2 -12.5zM869 358q2 -4 4.5 -7t6.5 -4t8 0l60 14q6 1 9.5 7t2 12.5t-7.5 9.5t-12 2l-60 -14q-6 -2 -9 -7.5
t-2 -12.5zM739 527q4 -1 8 -0.5t7.5 3.5t4.5 7l20 60q2 5 1 9t-3.5 7t-6.5 5q-6 2 -12 -1t-8 -9l-20 -61q-2 -4 -1 -8t3.5 -7t6.5 -5zM485 499q10 -12 21.5 -1.5t1.5 22.5l-39 48q-11 12 -22.5 1.5t-1.5 -22.5zM386 456l56 -27q4 -1 8 -1t7.5 2.5t4.5 6.5q7 14 -7 21l-56 27
q-5 3 -11 1t-9 -8q-2 -5 -2 -9t2.5 -7.5t6.5 -5.5zM913 119l-55 25q-2 1 -5.5 1t-6 -1t-5 -3t-3.5 -5q-1 -2 -1.5 -4t-0.5 -4t1 -4t2 -3.5t2.5 -3t3.5 -2.5l55 -25q5 -3 11.5 -1t8.5 8q1 2 1.5 4.5t0.5 4.5t-1 4t-2 3.5t-2.5 3t-3.5 2.5zM802 74q-11 12 -22.5 1.5
t-1.5 -22.5l42 -47q10 -12 21.5 -1.5t1.5 22.5zM943 207l-57 16q-6 2 -11.5 -1.5t-7 -10t1.5 -12t9 -7.5l57 -16q7 -1 12.5 2t6.5 10q1 4 0 8t-4 7t-7 4z" />
    <glyph glyph-name="uniE609" unicode="&#xe609;" 
d="M956 198q0 36 -15 68t-41.5 53.5t-59.5 30.5q-1 57 -29 105t-75 75.5t-102 27.5q-32 0 -62.5 -10t-55.5 -28t-44 -43q-35 47 -92 47q-48 0 -82 -35.5t-34 -85.5v-5q0 -4 0.5 -6t0.5 -6q-15 3 -30 3q-14 0 -27.5 -2t-26 -6.5t-24 -11t-22 -14t-19.5 -17t-17 -20.5t-14 -23
t-10 -25t-6 -27t-2 -28q0 -47 22.5 -87.5t61 -63.5t84.5 -23h570q41 0 76 21t55 57t20 79z" />
    <glyph glyph-name="uniE60A" unicode="&#xe60a;" 
d="M285.5 49q-10.5 7 -16.5 -4l-44 -68q-7 -11 4 -18q3 -2 7 -2q3 0 5.5 1.5t4.5 4.5l44 69q6 10 -4.5 17zM434.5 49q-10.5 7 -17.5 -4l-44 -68q-6 -11 4 -18q3 -2 7 -2q7 0 11 6l43 69q7 10 -3.5 17zM582.5 49q-10.5 7 -17.5 -4l-43 -68q-7 -11 4 -18q3 -2 6 -2q7 0 11 6
l43 69q7 10 -3.5 17zM730.5 49q-10.5 7 -16.5 -4l-44 -68q-3 -5 -1.5 -10t5.5 -8l7 -2q2 0 4 1t3.5 2t2.5 3l44 69q6 10 -4.5 17zM317.5 -73.5q-10.5 6.5 -16.5 -4.5l-44 -68q-6 -11 4 -17l7 -2q2 0 4 0.5t3.5 2t2.5 3.5l44 68q6 11 -4.5 17.5zM466.5 -73.5
q-10.5 6.5 -17.5 -4.5l-43 -68q-7 -11 3 -17q4 -2 7 -2q7 0 11 6l43 68q7 11 -3.5 17.5zM614.5 -73.5q-10.5 6.5 -17.5 -4.5l-43 -68q-7 -11 4 -17q3 -2 6 -2q7 0 11 6l43 68q7 11 -3.5 17.5zM763 -73.5q-11 6.5 -17 -4.5l-44 -68q-6 -11 4 -17q3 -2 7 -2q7 1 10 6l44 68
q7 11 -4 17.5zM822 610l-2 2q-2 1 -4.5 2t-3.5 2t-3 1q-46 23 -95 28q-37 56 -96.5 88t-126.5 32q-90 0 -161 -53.5t-96 -139.5q-1 -1 -4 -2q-2 0 -4 -1q-7 -2 -9 -3q-11 -4 -21.5 -9.5t-20.5 -12t-19.5 -14t-17.5 -15.5t-16 -17t-14 -19h-1q-5 -7 -10 -16q0 -1 -1 -1v-1
l-8 -16q-1 -1 -2 -3q-3 -7 -6 -16q-1 -1 -1 -2v-1q-15 -40 -15 -82q0 -100 71 -170.5t171 -70.5h380q45 0 86.5 13.5t75 39t59 59t39.5 75.5t14 86q0 75 -37.5 138t-100.5 99zM686 150h-380q-89 0 -147 68q-44 54 -45 123q0 24 6 46.5t16 42.5l3 5q6 11 14 21v1l4 5
q4 4 8 8.5t9 9.5l5 5q9 8 20 15q1 1 2.5 2t2.5 1q1 1 3 2t3.5 2t3.5 2t3.5 2t3.5 2t3.5 1.5t3.5 1.5q1 1 2 1h1q7 3 14.5 6t15.5 4q36 9 72 4q11 -1 19 5t10 16q0 5 -1 10t-4 8.5t-7 6.5t-9 3q-25 4 -50 2q25 60 79.5 96.5t120.5 36.5q23 0 45.5 -4.5t43 -14t38.5 -22.5
t33 -30q-10 -1 -20 -3t-19 -4q-26 -8 -50.5 -20.5t-45 -28.5t-38 -36.5t-30.5 -44.5q-6 -9 -3 -19t12 -15q3 -2 6 -2.5t6 -0.5q7 0 13 3t9 9q45 81 134 106q34 10 72 9l1 -1q59 -3 107.5 -33.5t76.5 -80.5t28 -109q0 -60 -30 -111.5t-81.5 -81.5t-112.5 -30z" />
    <glyph glyph-name="uniE60B" unicode="&#xe60b;" 
d="M660 551q-9 2 -11 11v68q0 2 1 4t2.5 3.5t3.5 2t4 0.5q4 0 7.5 -3t3.5 -7v-68q0 -5 -3.5 -8t-7.5 -3zM780 527q-3 -6 -9 -6q-3 0 -6 2q-9 5 -4 14l34 59q3 4 7 5t8 -1q9 -5 4 -14zM846 460l59 34q9 6 14.5 -3.5t-3.5 -14.5l-59 -34q-1 -1 -2.5 -1.5t-3.5 -0.5t-4.5 1.5
t-4.5 4.5q-5 9 4 14zM871 340.5q0 4.5 3 7.5t7 3h68q5 0 8 -3t3 -7.5t-3 -7.5t-8 -3h-68q-4 0 -7 3t-3 7.5zM857 239l59 -34q4 -2 5 -6.5t-1 -7.5q-3 -6 -10 -6q-1 0 -2.5 0.5t-2.5 1.5l-59 34q-9 5 -3.5 14.5t14.5 3.5zM64 192q0 -96 68 -164t164 -68h323q85 0 145 60
t60 145q0 10 -1 20t-3 19.5t-4.5 18.5t-6.5 18q30 46 30 100q0 74 -52.5 126.5t-126.5 52.5q-15 0 -31 -3q-32 38 -77.5 59.5t-96.5 21.5q-54 0 -101 -23.5t-79 -65.5t-43 -94v-1h-1q-3 0 -5.5 -1t-5.5 -2l-9 -3q-5 -2 -11 -5q-1 -1 -7 -4l-3 -1q-1 -1 -2.5 -1.5t-3 -1.5
t-3.5 -2l-1 -1q-2 -1 -3 -1q-35 -21 -61 -53t-39 -71v-1q-1 -3 -2.5 -6.5t-2.5 -7.5t-1 -7l-3 -12q-1 -4 -2 -11q0 -7 -1 -9v-5q0 -3 -0.5 -5.5t-0.5 -4.5v-6zM785 285q-19 26 -45.5 45.5t-57.5 29.5v11q0 14 -1.5 28t-5 27.5t-8.5 26t-11 24.5h2h2q57 0 97 -40t40 -96
q0 -8 -1 -15t-2.5 -14t-3.5 -13.5t-5 -13.5zM107 192v8q0 5 1 10q0 2 1 8q0 4 1 8q1 5 2 11q1 2 2 5q1 7 3 12q1 1 1 2v1q6 14 13.5 28t17.5 26t21 22h1q2 3 5 5.5t6 4.5l2 1q5 4 11 8l1 1l2 1q3 2 5.5 3.5t5.5 2.5q1 0 4 2q18 9 38 14h3l2 1l3 1q19 4 37 4q66 0 117 -41
q7 -5 16 -4t14.5 8t4.5 15.5t-8 13.5q-63 50 -144 50q-4 0 -8 -0.5t-10 -0.5q17 58 66 95.5t111 37.5q76 0 130.5 -54.5t54.5 -130.5q0 -4 -1 -12v-6q0 -3 -1 -6l-1 -8q-4 -23 -13.5 -44t-24.5 -40q-2 -3 -3.5 -7t-1 -8t2.5 -8t6 -7q5 -4 13 -4q5 0 9 2t7 6q16 19 27 41.5
t17 46.5q15 -6 29 -15t26 -20t21.5 -24.5t16 -28.5t10 -31t3.5 -33q0 -67 -48 -115t-115 -48h-323q-38 0 -73 15t-60.5 40.5t-40.5 60.5t-15 74z" />
    <glyph glyph-name="uniE60C" unicode="&#xe60c;" 
d="M822 599q-1 0 -2 1l-2 2h-4l-2 2q-2 1 -3 2q-23 11 -47 18t-48 10q-37 55 -96.5 87t-126.5 32q-22 0 -44 -3.5t-42 -10.5t-39 -17t-36 -22.5t-32 -28t-27 -33t-21.5 -37.5t-15.5 -41q-2 0 -5 -2l-4 -1q-1 0 -2 -1q-4 -1 -5 -2q-69 -26 -110 -86v-1q-3 -4 -5.5 -8t-5.5 -8
l-1 -2l-4 -8l-4 -8q-1 -2 -2 -3q-2 -4 -3.5 -8t-2.5 -8q-1 -1 -1 -2v-1q-4 -9 -6.5 -19t-4.5 -20.5t-3 -21t-1 -20.5q0 -100 71 -171t171 -71h170l-81 -110q-6 -8 -0.5 -15.5t14.5 -4.5l133 45l-100 -136q-8 -10 2 -18q3 -2 8 -2q6 0 10 5l124 168q5 7 0 14.5t-14 4.5
l-134 -44l69 93h179q113 0 193.5 80t80.5 194q0 74 -37.5 137.5t-100.5 99.5zM686 138h-380q-52 0 -96 25.5t-70 70t-26 96.5q0 46 22 89q1 0 1.5 2t1.5 3q1 2 3 4l2 4q2 2 3 4.5t2.5 4.5t3.5 4q2 3 3.5 5t3.5 4l4 4l3 3l3 3l4 4q2 3 5 5q10 8 20 15l3 3h2q12 8 24 14h2l1 1
q14 6 30 10q36 9 72 3q10 -1 18.5 5t10 16.5t-4.5 18.5t-16 10q-9 1 -17.5 1.5t-16.5 0.5h-16q16 39 46 69t70 46.5t84 16.5q96 0 160 -71q-22 -2 -39 -7q-35 -10 -66 -28.5t-56 -44t-43 -57.5q-3 -6 -3 -12.5t3.5 -12.5t9.5 -9t12 -3q15 0 22 13q22 39 56.5 66t77.5 40
q35 9 71 8h1l1 -1q89 -4 150.5 -69t61.5 -153q0 -46 -18 -87.5t-48 -71.5t-71 -47.5t-87 -17.5z" />
    <glyph glyph-name="uniE60D" unicode="&#xe60d;" 
d="M512 568q-111 0 -189.5 -78.5t-78.5 -189.5t78.5 -189.5t189.5 -78.5q73 0 134.5 36t97.5 97.5t36 134.5q0 115 -84 195q-78 72 -184 73zM512 95q-85 0 -145 60t-60 145q0 55 27.5 102.5t75 75t102.5 27.5q85 0 145 -60t60 -145q0 -56 -27.5 -103t-74.5 -74.5t-103 -27.5
zM512 614q4 0 8 2.5t6 6t2 7.5v102q0 6 -4.5 11t-11.5 5t-11.5 -5t-4.5 -11v-102q0 -6 4.5 -11t11.5 -5zM333 578q5 -8 14 -8q4 0 8 2q13 8 6 22l-51 88q-3 6 -9.5 7.5t-12.5 -1.5q-14 -8 -6 -22zM234 479l-88 51q-2 1 -4.5 1.5t-5 0t-5 -1.5t-3.5 -2l-4 -4q-1 -3 -1.5 -6
t0 -6t2.5 -5.5t5 -4.5l88 -51l8 -2q9 0 14 8q3 6 1.5 12.5t-7.5 9.5zM198 300q0 3 -1.5 6t-3.5 5t-5 3.5t-6 1.5h-102q-6 0 -11 -4.5t-5 -11.5q0 -3 1.5 -6t3.5 -5t5 -3.5t6 -1.5h102q3 0 6 1.5t5 3.5t3.5 5t1.5 6zM218 149l-88 -51q-6 -4 -7.5 -10t1.5 -12q5 -8 14 -8h2
l4 2h2l88 51q6 3 7.5 9.5t-2 12t-9.5 7.5t-12 -1zM354.5 27.5q-13.5 7.5 -21.5 -5.5l-51 -88q-8 -14 6 -22l8 -2q9 0 14 8l51 88q7 14 -6.5 21.5zM512 -15q-7 0 -11.5 -4.5t-4.5 -10.5v-102q0 -6 4.5 -11t11.5 -5q4 0 8 2.5t6 6t2 7.5v102q0 4 -2 7.5t-6 5.5t-8 2zM691 22
q-3 6 -9.5 7.5t-12.5 -1.5q-13 -8 -6 -22l51 -88q5 -8 14 -8q2 0 4 0.5t4 1.5q14 8 6 22zM894 98l-88 51q-3 1 -6 1.5t-6 -0.5t-5.5 -2.5t-4.5 -4.5q-2 -4 -2 -8t2 -8t6 -6l88 -51q4 -2 8 -2t8 2t6 6q8 14 -6 22zM944 316h-102q-6 0 -10.5 -4.5t-4.5 -11.5q0 -3 0.5 -5t2 -4
t3.5 -3.5t4.5 -2.5t4.5 -1h102q6 0 11 4.5t5 11.5t-5 11.5t-11 4.5zM798 449q2 0 4 0.5t4 1.5l88 51q6 3 7.5 9.5t-2 12.5t-9.5 7.5t-12 -1.5l-88 -51q-4 -2 -6 -6t-2 -8t2.5 -8t6 -6t7.5 -2zM669 572q4 -2 8 -2q9 0 14 8l51 88q8 14 -6 22q-3 1 -6 1.5t-6 0t-5.5 -2.5
t-4.5 -5l-51 -88q-7 -14 6 -22z" />
    <glyph glyph-name="uniE60E" unicode="&#xe60e;" 
d="M714 635q-37 55 -96.5 87.5t-126.5 32.5q-44 0 -86 -14.5t-75.5 -39.5t-58.5 -61t-37 -79q-37 -11 -68.5 -34t-54 -53t-35 -67t-12.5 -76q0 -100 71 -171t171 -71h380q113 0 193.5 80.5t80.5 193.5q0 105 -70.5 183t-175.5 89zM686 139h-380q-79 0 -135.5 56.5
t-56.5 135.5q0 56 30 102.5t81 70.5q-5 -62 18 -118q6 -15 23 -15q3 0 5 0.5t5 0.5q9 4 13 13.5t0 19.5q-22 56 -13 115q-1 0 -3.5 0.5t-3.5 0.5q8 5 10 15q7 29 21 55.5t34 47t44.5 35.5t53.5 23t59 8q96 0 160 -71q-4 -1 -7.5 -1.5t-8 -1t-8 -1.5t-7.5 -2l-8 -2
q-35 -10 -66 -28.5t-56 -44t-43 -57.5q-5 -9 -2 -19t12 -15q2 -1 3 -2h4q1 -1 2 -1h3q15 0 22 13q45 81 134 106q36 10 72 8h2q88 -5 149.5 -69.5t61.5 -153.5q0 -93 -65.5 -158.5t-158.5 -65.5zM402 36q-7 3 -13 -1l-99 -71q-20 -20 -20 -49q0 -14 5.5 -27t14.5 -22.5
t22 -15t27 -5.5q19 0 35 9.5t25 25.5t9 35v110q0 2 -0.5 4t-2 4t-3.5 3zM383 -85q0 -19 -13 -32t-31 -13q-12 0 -22.5 6t-16 16.5t-5.5 22.5q0 18 11 30l77 55v-85zM603 36q-7 3 -13 -1l-99 -71q-9 -10 -14.5 -22.5t-5.5 -26.5q0 -19 9.5 -35t25.5 -25.5t34.5 -9.5t34.5 9.5
t25.5 25.5t9.5 35v110q0 1 -0.5 3t-1.5 3.5t-2 2.5t-3 2zM585 -85q0 -19 -13 -32t-32 -13q-12 0 -22 6t-16 16.5t-6 22.5q0 18 11 30l78 55v-85z" />
    <glyph glyph-name="uniE60F" unicode="&#xe60f;" 
d="M735 17q-11 0 -18 -7.5t-7 -17.5t7 -17.5t17.5 -7.5t17.5 7.5t7 17.5q0 19 -18 24q-4 1 -6 1zM586 17q-10 0 -17.5 -7.5t-7.5 -17.5t7.5 -17.5t18 -7.5t17.5 7.5t7 17.5q0 19 -18 24q-4 1 -7 1zM438 17q-10 0 -17.5 -7.5t-7.5 -17.5q0 -5 2 -9.5t5.5 -8t8 -5.5t9.5 -2
q10 0 17.5 7.5t7.5 17.5t-7.5 17.5t-17.5 7.5zM290 17q-6 0 -10.5 -2t-7.5 -5.5t-5 -8t-2 -9.5q0 -10 7 -17.5t17.5 -7.5t18 7.5t7.5 17.5t-7.5 17.5t-17.5 7.5zM702.5 -104q-10.5 0 -18 -7.5t-7.5 -17.5q0 -3 1 -6t2 -5.5t3 -4.5t4 -3.5t4.5 -3t5 -2t5.5 -0.5q11 0 18 7
t7 17.5t-7 18t-17.5 7.5zM554 -104q-4 0 -8 -1.5t-7 -3.5t-5 -5.5t-3.5 -7t-1.5 -7.5t1.5 -8t3.5 -7t5 -5.5t7 -3.5t8 -1q10 0 17.5 7t7.5 17.5t-7.5 18t-17.5 7.5zM406 -104q-11 0 -18 -7.5t-7 -18t7 -17.5t17.5 -7t18 7t7.5 18q0 3 -1 6.5t-2.5 6t-4 5t-5 4t-6 2.5t-6.5 1
zM257 -104q-6 0 -12 -3.5t-9.5 -9.5t-3.5 -12.5t3.5 -12.5t9.5 -9t12 -3q11 0 18 7t7 18q0 5 -2 9.5t-5 8t-8 5.5t-10 2zM822 600h-1l-1 1l-4 2q-3 1 -4 1.5t-3 2.5q-23 11 -46.5 18t-48.5 10q-60 89 -165 113q-29 6 -58 6q-90 0 -161 -53.5t-96 -139.5q-1 0 -8 -3
q-1 0 -2 -1q-4 -1 -7 -2q-68 -27 -109 -86v-1q-5 -7 -11 -16l-1 -1v-1l-8 -16l-1 -2l-1 -1q-1 -3 -2 -5l-2 -6q-1 -2 -2 -5l-1 -1v-1v-1q-7 -19 -11 -39.5t-4 -41.5q0 -100 71 -171t171 -71h380q74 0 137 36.5t100 99.5t37 138q0 49 -17.5 95t-48.5 82t-72 60zM686 139h-380
q-52 0 -96 25.5t-70 70t-26 96.5q0 46 22 88q3 5 3 6q6 10 14 21l1 2l3 3q4 5 8 9l9 9l1 1l4 4l10 8q5 4 10 7q1 1 2.5 2t2.5 1q12 8 24 13q2 1 3 2q15 6 30 10q18 4 35.5 5t36.5 -2q11 -1 19 5t9.5 16.5t-4.5 18.5t-16 10q-25 3 -50 1q16 40 46.5 70t70 46.5t83.5 16.5
q47 0 88 -18.5t72 -52.5q-7 0 -13 -1.5t-13 -3t-13 -2.5q-53 -15 -95.5 -48.5t-68.5 -81.5q-6 -9 -3 -19t12 -15q6 -3 12 -3q15 0 22 13q45 80 134 106q35 9 72 8h1q0 -1 1 -1q88 -5 149.5 -69.5t61.5 -152.5q0 -31 -8 -60t-22.5 -53.5t-35 -45t-45 -35t-53.5 -22.5t-60 -8z
" />
    <glyph glyph-name="uniE610" unicode="&#xe610;" 
d="M958 223q0 2 -1 8v2q-1 6 -2 13q-1 8 -3 14v1q-1 5 -2 7q-3 10 -5 17v1q-33 95 -119 146q-2 1 -4 3l-14 7h-1q-5 3 -7 4l-14 6l-9 3q-10 4 -14 5h-1q-6 31 -19 59.5t-31.5 52t-42 43t-50.5 33t-57.5 21t-62.5 7.5q-72 0 -134 -36t-98 -97.5t-36 -134.5q0 -6 1 -13
q-74 -24 -121 -87.5t-47 -141.5q0 -100 71 -171t171 -71h380q113 0 193.5 80t80.5 193q0 12 -2 26zM686 -26h-380q-79 0 -135.5 56t-56.5 136q0 29 9.5 57.5t25.5 51.5t39.5 41.5t50.5 28.5q7 -29 20 -55t31 -49q8 -10 20 -10q4 0 8 1.5t7 4.5q9 6 10 16.5t-6 18.5
q-38 47 -46 108q-1 7 -1 14q0 4 -0.5 7.5t-0.5 6.5q0 30 8 58t22 52t34 44t44 34t52.5 22t57.5 8q48 0 91 -20t74 -55.5t44 -80.5q-15 1 -22 1q-94 0 -169 -58q-8 -7 -9 -17t5.5 -18.5t16.5 -9.5t18 5q30 24 65 36t73 12q13 0 26 -1.5t27 -4.5q24 -6 46 -17l4 -2
q3 -2 6.5 -4t6.5 -4l4 -2q2 -1 4 -2.5t4.5 -3.5t4.5 -3t2 -2q52 -40 75 -101q1 -2 1 -3q2 -7 5 -14q0 -1 1 -6q2 -8 3 -13q0 -2 0.5 -4.5t0.5 -5.5q2 -8 2 -10q1 -11 1 -21q0 -92 -65.5 -157.5t-158.5 -65.5z" />
    <glyph glyph-name="uniE611" unicode="&#xe611;" 
d="M886 259l-71 38q-9 5 -14 -4q-2 -3 -0.5 -7t4.5 -6l72 -39q1 -1 2 -1h2q2 0 4 0.5t3 1.5t2 3q2 4 1 8t-5 6zM569 60q6 0 10.5 -2.5t7.5 -7t3 -10.5q0 -4 -2 -8t-4.5 -6.5t-6.5 -4t-8 -1.5q-8 0 -14 6t-6 14t6 14t14 6zM523 -81q5 0 9.5 -2.5t7.5 -7.5t3 -10q0 -3 -1 -6.5
t-3 -6t-4.5 -4t-5.5 -2.5t-6 -1q-6 0 -10.5 2.5t-7.5 7t-3 10.5q0 2 0.5 4.5t1.5 4.5t2.5 3.5t3.5 3t4 2.5t4 1.5t5 0.5zM546 -9q4 0 8 -1.5t6.5 -4t4 -6.5t1.5 -8q0 -8 -6 -14t-14 -6q-6 0 -10.5 2.5t-7 7t-2.5 10.5q0 8 5.5 14t14.5 6zM918 405h-81q-10 0 -10 -10
q0 -3 1.5 -5.5t3.5 -3.5t5 -1h81q3 0 5.5 1.5t3.5 3.5t1 5q0 10 -10 10v0zM811 488q3 0 5 1l71 38q3 2 4.5 4t1.5 5t-2 5q-4 9 -13 4l-72 -38q-9 -5 -4 -14l2 -3q2 -1 3.5 -1.5t3.5 -0.5zM491 576q3 -5 9 -5l5 2q9 5 3 14l-43 68q-5 9 -13.5 3.5t-3.5 -13.5zM742 213
q-6 7 -14 3q-3 -2 -4 -6t1 -8l43 -69q4 -4 9 -4q3 0 5 1q9 5 3 14zM347 530l71 -39q1 0 2.5 -0.5t2.5 -0.5q6 0 9 5q5 9 -4 14l-71 39q-9 5 -14 -4t4 -14v0zM727 573q2 -1 3 -1h3q5 0 8 4l43 69q2 4 1 8t-4 6q-9 6 -14 -3l-43 -69q-5 -8 3 -14v0zM617 605q4 0 7 3t3 7v81
q0 10 -10 10t-10 -10v-81q0 -10 10 -10zM778 391q0 33 -13 63.5t-35 52.5t-52 35t-63 13q-42 0 -76.5 -18t-57.5 -52q-1 -2 -1.5 -4t0 -3.5t1.5 -3.5t3 -3q9 -6 14 3q40 60 117 60q59 0 101 -42t42 -101q0 -24 -8 -47t-22.5 -41.5t-35.5 -31.5q-3 -3 -4 -7t1 -7q3 -5 9 -5
l5 2q35 22 55 58.5t20 78.5v0zM577 103h-348h-7q-14 0 -27.5 4t-25 10.5t-21 16t-16 21t-10.5 24.5t-4 27q0 43 30.5 73t73.5 30q12 0 24 -3q5 -1 8 2q2 0 2.5 1.5t1.5 2.5t1 2q8 56 50 91.5t98 35.5q62 0 106 -44t44 -106q0 -4 -1 -12q0 -5 3.5 -8t7.5 -3h3q2 0 3.5 0.5
t3.5 0.5q34 0 58 -24.5t24 -58.5q0 -23 -11 -42t-30 -30t-41 -11zM577 289v2q0 28 -8.5 54t-24.5 47t-37 36.5t-46.5 24t-53.5 8.5q-40 0 -75 -17t-59 -47t-32 -69q-5 1 -10 1.5t-9 0.5q-51 0 -87.5 -36.5t-36.5 -87.5q0 -16 4.5 -32t12.5 -29.5t19.5 -25t25 -19.5
t29.5 -12.5t33 -4.5h37l-47 -94q-3 -5 0 -10q2 -3 4 -4t5 -1h53l-44 -85q-4 -9 5 -13q1 -1 2 -1.5t2 -0.5q6 2 9 6l52 99q1 3 1 5.5t-2 4.5q0 2 -1.5 3t-3 1.5t-3.5 0.5h-54l43 85q0 1 0.5 2t0.5 2h33h92l-48 -94q-2 -6 0 -10q4 -5 9 -5h53l-43 -85q-2 -2 -1.5 -4.5t2 -5
t3.5 -4t5 -1.5q2 0 4.5 1.5t4.5 4.5l51 99q3 5 0 10q-2 3 -4 4t-5 1h-53l42 85l1 4h150q42 0 72.5 30t30.5 73q0 28 -14 51.5t-37.5 37.5t-51.5 14z" />
    <glyph glyph-name="uniE612" unicode="&#xe612;" 
d="M194 11q-8 6 -15 0l-11 -11l-12 11q-7 7 -14.5 0t-0.5 -15l12 -11l-12 -11q-3 -4 -3 -8t3 -7l8 -3l7 3l12 11l11 -11q3 -3 7 -3q2 0 4 0.5t4 2.5q7 7 0 15l-12 11l12 11q7 8 0 15v0zM760 488h-10q-5 0 -10 -1q-5 24 -16 45t-27.5 38t-36.5 29t-43 18.5t-48 6.5
q-56 0 -101 -31q-3 -3 -4 -7t2 -8q6 -8 14 -2q10 6 20.5 11.5t22 9t23 5.5t23.5 2q38 0 71 -17t54.5 -47t27.5 -67q1 -5 4 -7q2 -2 4 -2h5q13 3 25 3q44 0 75.5 -31t31.5 -75q0 -41 -27.5 -71.5t-68.5 -34.5q-10 -1 -9 -11t10 -10h2q24 3 45 14t36 27.5t24 39t9 46.5
q0 53 -37.5 90t-90.5 37v0zM632 184h-359h-7q-44 0 -75.5 31.5t-31.5 75.5t31.5 75t75.5 31q12 0 25 -3q5 -1 9 1.5t4 6.5q6 38 27.5 67.5t54.5 46.5t71 17q64 0 109.5 -45.5t45.5 -109.5q0 -3 -1 -12q0 -3 1 -5t3 -4q3 -3 8 -3q1 1 3 1h4h2q36 0 61 -25t25 -60
q0 -24 -11.5 -43.5t-31.5 -31t-43 -11.5v0zM633 376q44 0 75 -31.5t31 -74.5q0 -29 -14.5 -53.5t-39 -39t-53.5 -14.5h-271h-95q-53 0 -90.5 37.5t-37.5 90t37.5 90t90.5 37.5q10 0 20 -2q8 40 33 71.5t61 49t77 17.5q73 0 124.5 -51.5t51.5 -124.5v-2v0zM694 114
q-3 3 -7.5 3t-7.5 -3l-11 -11l-12 11q-7 8 -14 0q-2 -2 -3 -4.5t0 -5t3 -4.5l11 -12l-11 -11q-8 -7 0 -15l7 -3q4 0 7 3l12 11l11 -11l7 -3q5 0 8 3t3 7.5t-3 7.5l-12 11l12 12q7 7 0 14zM594 11q-3 3 -7.5 3t-7.5 -3l-11 -11l-12 11q-3 3 -7 3t-7 -3q-8 -7 0 -15l11 -11
l-11 -11q-3 -4 -3 -8t3 -7l7 -3q2 0 4 0.5t3 2.5l12 11l11 -11q3 -3 8 -3q2 0 3.5 0.5t3.5 2.5q7 7 0 15l-11 11l11 11q7 8 0 15zM494 114q-8 8 -15 0l-11 -11l-12 11q-7 8 -15 0q-5 -7 0 -14l12 -12l-12 -11q-7 -7 0 -15l4 -2q2 -1 4 -1t4 1t3 2l12 11l11 -11l7 -3q5 0 8 3
q6 8 0 15l-12 11l12 12q7 7 0 14v0zM394 11q-8 7 -15 0l-11 -11l-12 11q-3 3 -7 3t-7 -3q-8 -7 0 -15l11 -11l-11 -11q-6 -8 0 -15q3 -3 7 -3q2 0 4 0.5t3 2.5l12 11l11 -11q2 -2 3.5 -2.5t3.5 -0.5t4 0.5t4 2.5q7 7 0 15l-12 11l12 11q7 8 0 15zM294 114q-2 2 -5 3t-5.5 0
t-4.5 -3l-11 -11l-12 11q-7 8 -15 0q-3 -3 -3 -7t3 -7l12 -12l-12 -11q-7 -7 0 -15l8 -3q4 0 7 3l12 11l11 -11q1 -1 3 -2t4 -1q5 0 8 3t3 7.5t-3 7.5l-12 11l12 12q7 7 0 14z" />
    <glyph glyph-name="uniE613" unicode="&#xe613;" 
d="M760 494q-10 0 -20 -1q-13 60 -61 98.5t-110 38.5q-55 0 -101 -31q-3 -3 -4 -7t2 -8q6 -8 14 -3q40 28 89 28q57 0 100.5 -37t52.5 -93q0 -2 0.5 -3t1.5 -2.5t2 -1.5q2 -2 4 -2h5q6 2 12.5 2.5t12.5 0.5q22 0 41.5 -8.5t34 -22.5t23 -34t8.5 -41q0 -20 -7.5 -39t-20 -33
t-30 -23t-38.5 -11q-10 -1 -9 -11q1 -4 4 -7t6 -3h1h1q48 5 81 41.5t33 85.5q0 53 -37.5 90t-90.5 37zM632 190h-359h-7q-44 0 -75.5 31t-31.5 75t31.5 75.5t75.5 31.5q12 0 25 -3q3 -1 5 -0.5t4 1.5t3 3t1 4q6 38 27.5 67.5t54.5 46.5t71 17q64 0 109.5 -45.5t45.5 -109.5
q0 -5 -1 -12q0 -5 3.5 -8.5t8.5 -3.5q5 1 9 1q36 0 61 -25t25 -60.5t-25 -60.5t-61 -25v0zM633 382q44 0 75 -31.5t31 -75.5t-31.5 -75t-75.5 -31h-271h-95q-53 0 -90.5 37.5t-37.5 90t37.5 90t90.5 37.5q5 0 10 -0.5t10 -1.5q13 61 61 99.5t110 38.5q18 0 35.5 -3.5
t33 -10.5t30 -16.5t26 -21.5t21 -26t16.5 -29.5t10.5 -33t3.5 -35.5v-2v0zM574 110q-3 2 -5.5 1.5t-5 -2t-3.5 -3.5l-71 -141q-2 -4 -0.5 -8t5.5 -6q1 -1 2 -1h3q2 0 3.5 0.5t3 2t2.5 3.5l70 140q2 3 1.5 6t-2 5t-3.5 3v0zM456 110q-2 2 -5 1.5t-5.5 -2t-3.5 -3.5l-70 -141
q-5 -9 4 -14q3 -1 5 -1q7 0 9 6l71 140q1 3 1 6t-1.5 5t-4.5 3zM339 110q-3 2 -5.5 1.5t-5 -2t-3.5 -3.5l-71 -141q-2 -4 -0.5 -8t5.5 -6q2 -1 5 -1q6 0 9 6l70 140q2 3 1.5 6t-2 5t-3.5 3z" />
    <glyph glyph-name="uniE614" unicode="&#xe614;" 
d="M224 110q-3 2 -5.5 1.5t-5 -2t-3.5 -3.5l-71 -141q-5 -9 5 -14q2 -1 4 -1q7 0 10 6l70 140q1 2 1 4.5t-0.5 4t-1.5 3.5t-3 2v0zM763 494h-7q-3 0 -6.5 -0.5t-6.5 -0.5q-13 60 -61 98.5t-111 38.5q-55 0 -100 -31q-4 -3 -5 -7t2 -8q6 -9 15 -3q39 28 88 28q58 0 101 -37
t52 -93q2 -5 5 -7q3 -3 8 -2q13 3 26 3q12 0 24 -2.5t22.5 -8t19.5 -12.5t16.5 -16.5t13 -20t8 -22.5t2.5 -24q0 -41 -27 -71.5t-68 -34.5q-11 -1 -10 -11q1 -4 4 -7t7 -3h1q49 5 81.5 41.5t32.5 85.5q0 53 -37.5 90t-89.5 37zM635 190h-360h-7q-22 0 -41.5 8.5t-34 22.5
t-22.5 34t-8 41q0 44 31 75.5t75 31.5q12 0 26 -3q4 -1 8 1l2 2q1 1 1.5 2.5t1.5 2.5q5 38 27 67.5t55 46.5t70 17q64 0 109.5 -45.5t45.5 -109.5v-12q-1 -5 2.5 -8.5t8.5 -3t10 0.5q23 0 42.5 -11.5t31 -31t11.5 -43.5q0 -35 -25 -60t-60 -25v0zM635 382q13 0 24.5 -3
t22 -8.5t20 -12.5t16.5 -16.5t12 -19.5t8 -22t3 -25q0 -44 -31 -75t-75 -31h-272h-95q-53 0 -90 37.5t-37 89.5q0 35 17 64.5t46.5 46.5t63.5 17q10 0 20 -2q13 61 61 99.5t110 38.5q48 0 88.5 -23.5t64 -64t23.5 -88.5v-2v0zM693 110q-1 1 -3.5 1.5t-4 -0.5t-3.5 -2t-3 -3
l-70 -141q-5 -10 5 -14q1 -1 2 -1h2q7 1 10 6l70 140q1 3 1 6t-1.5 5t-4.5 3v0zM576 110q-3 2 -5.5 1.5t-5 -2t-3.5 -3.5l-70 -141q-2 -4 -1 -8t5 -6l5 -1q3 0 5.5 1.5t3.5 4.5l71 140q1 3 1 6t-1.5 5t-4.5 3v0zM459 110q-3 2 -5.5 1.5t-5 -2t-3.5 -3.5l-71 -141
q-5 -9 5 -14q2 -1 4 -1q7 0 10 6l70 140q1 2 1 4.5t-0.5 4t-2 3.5t-2.5 2v0zM341 110q-3 2 -5.5 1.5t-5 -2t-3.5 -3.5l-70 -141q-5 -9 4 -14q3 -1 5 -1q6 0 9 6l71 140q1 3 1 6t-1.5 5t-4.5 3z" />
    <glyph glyph-name="uniE615" unicode="&#xe615;" 
d="M224 110q-2 1 -4.5 1.5t-4 -0.5t-3.5 -2t-2 -3l-34 -67h24l28 57q5 10 -4 14v0zM168 22l-29 -57q-2 -4 -0.5 -8t5.5 -6q2 -1 4 -1q7 0 10 6l33 66h-23zM763 494h-7q-3 0 -6.5 -0.5t-6.5 -0.5q-13 60 -61 98.5t-111 38.5q-55 0 -100 -31q-4 -3 -5 -7t2 -8q6 -8 15 -3
q39 28 88 28q38 0 71 -16.5t54.5 -46.5t27.5 -67q0 -2 1 -3t1.5 -2.5t2.5 -1.5q4 -3 8 -2q13 3 26 3q17 0 33 -5t29.5 -15t23 -23t15 -29.5t5.5 -33.5q0 -41 -27 -71.5t-68 -34.5q-11 -1 -10 -11q1 -2 1.5 -4t2 -3t3.5 -2t4 -1h1q49 5 81.5 41.5t32.5 85.5q0 53 -37.5 90
t-89.5 37v0zM635 190h-360h-7q-44 0 -75 31t-31 75t31 75.5t75 31.5q12 0 26 -3q2 -1 4 -0.5t4 1.5t3 3l2 4q2 16 7.5 31t14 28t19 24.5t23.5 20t27 14.5t29.5 9.5t31.5 3.5q64 0 109.5 -45.5t45.5 -109.5v-6v-6v-4q0 -1 1 -2.5t2 -2.5q3 -3 8 -3q5 1 10 1q23 0 42.5 -11.5
t31 -31t11.5 -43t-11.5 -43t-31 -31t-42.5 -11.5zM635 382q11 0 21.5 -2.5t20 -6.5t18 -9.5t15.5 -13t13 -16t10 -18t6 -20t2 -21.5q0 -44 -31 -75t-75 -31h-272h-95q-53 0 -90 37.5t-37 90t37 90t90 37.5q10 0 20 -2q13 61 61 99.5t110 38.5q24 0 47 -6.5t42 -18
t35.5 -27.5t28 -35.5t17.5 -42t6 -46.5v-2v0zM693 110q-2 2 -5 1.5t-5 -2t-4 -3.5l-33 -67h23l29 57q2 4 0.5 8.5t-5.5 5.5v0zM637 22l-28 -57q-5 -9 5 -14q2 -1 4 -1q7 0 10 6l33 66h-24zM576 110q-3 2 -5.5 1.5t-5 -2t-3.5 -3.5l-33 -67h23l29 57q2 4 0.5 8.5t-5.5 5.5v0z
M520 22l-28 -57q-5 -9 4 -14q2 -1 5 -1q6 0 9 6l33 66h-23zM459 110q-3 2 -5.5 1.5t-5 -2t-4.5 -3.5l-33 -67h24l28 57q5 10 -4 14zM403 22l-29 -57q-5 -9 5 -14q2 -1 4 -1q7 0 10 6l33 66h-23zM341 110q-3 2 -5.5 1.5t-5 -2t-3.5 -3.5l-33 -67h23l29 57q2 4 0.5 8.5
t-5.5 5.5zM285 22l-28 -57q-5 -9 4 -14q3 -1 5 -1q6 1 9 6l33 66h-23z" />
    <glyph glyph-name="uniE616" unicode="&#xe616;" 
d="M760 488h-10q-5 0 -10 -1q-8 39 -33 70.5t-61 49t-77 17.5q-14 0 -27 -2t-26 -6t-25 -10t-23 -13q-3 -3 -4 -7t2 -8q6 -8 14 -2q20 13 42.5 20.5t46.5 7.5q57 0 100.5 -37t52.5 -94q1 -5 4 -7q4 -3 9 -2q6 2 12.5 2.5t12.5 0.5q44 0 75.5 -31t31.5 -75q0 -41 -27.5 -71.5
t-68.5 -34.5q-10 -1 -9 -11t10 -10h2q16 2 31 7.5t27.5 14t22.5 20t17.5 25t11.5 29t4 31.5q0 53 -37.5 90t-90.5 37v0zM632 184h-359h-7q-29 0 -53.5 14.5t-39 39t-14.5 53.5q0 21 8.5 41t23 34t34 22.5t41.5 8.5q12 0 25 -3q5 -1 8.5 1.5t4.5 6.5q9 57 52.5 94t100.5 37
q25 0 49 -8t43 -22t33 -33t22 -43t8 -49q0 -4 -1 -12q0 -5 3.5 -8.5t8.5 -3t9 0.5q36 0 61 -25t25 -60.5t-25 -60.5t-61 -25v0zM633 376q21 0 41 -8.5t34 -23t22.5 -34t8.5 -40.5q0 -44 -31.5 -75.5t-75.5 -31.5h-271h-95q-13 0 -26 2.5t-24 7.5t-21.5 12t-19 15.5t-15.5 19
t-11.5 21.5t-7.5 24t-3 26q0 52 37.5 89.5t90.5 37.5q5 0 10 -0.5t10 -1.5q13 61 61 99.5t110 38.5q36 0 68.5 -14t56 -37.5t37.5 -56t14 -68.5v-2v0zM494 114q-8 8 -15 0l-11 -11l-12 11q-7 8 -15 0q-3 -3 -3 -7t3 -7l12 -12l-12 -11q-7 -7 0 -15l8 -3q4 0 7 3l12 11
l11 -11l7 -3q2 0 4 1l4 2q6 8 0 15l-12 11l12 12q7 7 0 14zM393.5 11q-7.5 7 -14.5 0l-11 -11l-12 11q-7 7 -14.5 0t-0.5 -15l12 -11l-12 -11q-2 -2 -2.5 -5t0 -5.5t2.5 -4.5t4 -2.5t4 -0.5l7 3l12 11l11 -11q3 -3 7 -3q2 0 4 0.5t4 2.5q7 7 0 15l-12 11l12 11q7 8 -0.5 15z
" />
    <glyph glyph-name="uniE617" unicode="&#xe617;" 
d="M268 46q-2 2 -4.5 3t-5.5 0t-5 -3l-11 -11l-11 11q-8 8 -15.5 0.5t0.5 -15.5l11 -11l-11 -11q-8 -8 0 -15q3 -3 7.5 -3t7.5 3l11 11l11 -11q4 -3 8 -3t7 3q8 7 0 15l-11 11l11 11q3 4 3 8t-3 7zM707 219h-360h-7q-44 0 -75 31.5t-31 75.5t31 75t75 31q13 0 26 -3
q4 -1 8 1q4 4 5 8q9 56 52 93t101 37q64 0 109.5 -45.5t45.5 -109.5q0 -4 -1 -12q-1 -5 3 -8.5t8 -2.5h10q17 0 33 -6.5t27.5 -18t18 -27.5t6.5 -33q0 -23 -11.5 -43t-31 -31.5t-42.5 -11.5v0zM707 411v2q0 48 -23.5 88.5t-64 64t-87.5 23.5q-42 0 -78 -17.5t-60.5 -49
t-33.5 -71.5q-10 2 -20 2q-17 0 -33.5 -4.5t-30.5 -12.5t-26 -20t-20 -26t-12.5 -30.5t-4.5 -33.5q0 -35 17 -64t46.5 -46.5t63.5 -17.5h95h272q44 0 75 31.5t31 75.5t-31 75t-75 31v0zM768 150q-3 3 -7 3t-7 -3l-12 -12l-11 12q-8 7 -15 0q-2 -2 -2.5 -5t0 -5.5t2.5 -4.5
l11 -12l-11 -11q-3 -3 -3 -7.5t3 -7.5t7.5 -3t7.5 3l11 12l12 -12q3 -3 7 -3t7 3q8 8 0 15l-11 11l11 12q8 7 0 15zM668 46q-3 3 -7 3t-7 -3l-12 -11l-11 11q-7 8 -14.5 0.5t-0.5 -15.5l12 -11l-12 -11q-7 -8 0 -15q3 -3 7.5 -3t7.5 3l11 11l12 -11q1 -2 3 -2.5t4 -0.5
q4 0 7 3q8 7 0 15l-11 11l11 11q4 4 4 8t-4 7zM568 150q-3 3 -7 3t-7 -3l-12 -12l-11 12q-8 7 -15 0q-2 -2 -2.5 -5t0 -5.5t2.5 -4.5l11 -12l-11 -11q-3 -3 -3 -7.5t3 -7.5q1 -1 3 -2t4 -1t4 1l4 2l11 12l12 -12l7 -3q2 0 4 1t3 2q8 8 0 15l-11 11l11 12q8 7 0 15zM468 46
q-7 8 -14 0l-12 -11l-11 11q-8 8 -15 0.5t0 -15.5l11 -11l-11 -11q-7 -8 0 -15q3 -3 7 -3q2 0 4 0.5t4 2.5l11 11l12 -11q1 -2 3 -2.5t4 -0.5q4 0 7 3q8 7 0 15l-11 11l11 11q3 4 3 8t-3 7zM368 150q-3 3 -7.5 3t-7.5 -3l-11 -12l-11 12q-8 7 -15 0q-2 -2 -3 -5t0 -5.5
t3 -4.5l11 -12l-11 -11q-3 -3 -3 -7.5t3 -7.5t7.5 -3t7.5 3l11 12l11 -12q3 -3 7.5 -3t7.5 3q8 8 0 15l-11 11l11 12q8 7 0 15z" />
    <glyph glyph-name="uniE618" unicode="&#xe618;" 
d="M219 81q-10 5 -14 -4l-38 -75q-4 -9 5 -14q1 0 2 -0.5t3 -0.5q6 0 9 6l37 74q1 2 1 4t-0.5 4t-1.5 3.5t-3 2.5zM352 81q-10 5 -14 -4l-38 -75q-4 -9 5 -14q3 -1 5 -1q6 0 9 6l37 74q1 2 1.5 4t-0.5 4t-2 3.5t-3 2.5zM485 81q-10 5 -14 -4l-38 -75q-4 -9 5 -14q2 -1 5 -1
q6 0 9 6l37 74q5 9 -4 14zM618 81q-9 5 -14 -4l-37 -75q-2 -4 -1 -8t5 -6q2 -1 5 -1q6 0 9 6l38 74q4 9 -5 14v0zM632 153h-359q-5 0 -7 -1v1q-44 0 -75.5 31t-31.5 75q0 29 14.5 53.5t39 39t53.5 14.5q6 0 12.5 -1t12.5 -3q3 0 5 0.5t4 1.5q4 2 4 7q9 57 52.5 94t100.5 37
q42 0 78 -21t56.5 -56.5t20.5 -77.5q0 -5 -1 -13q0 -5 3 -8q2 -2 4.5 -2.5t4.5 -0.5q4 1 9 1q12 0 23 -3.5t20.5 -9t17.5 -13t13.5 -17t8.5 -20.5t3 -23q0 -17 -7 -33t-18.5 -27.5t-27 -18t-33.5 -6.5zM760 457q-4 0 -9 -0.5t-11 -1.5q-6 30 -22 55.5t-38.5 43.5t-51 28.5
t-59.5 10.5q-55 0 -101 -32q-8 -6 -2 -14q2 -4 6.5 -4.5t7.5 1.5q40 28 89 28q57 0 100.5 -37t52.5 -94q1 -4 4.5 -6.5t8.5 -1.5q13 3 25 3q29 0 53.5 -14t39 -39t14.5 -53q0 -41 -27.5 -71.5t-68.5 -34.5q-10 -1 -9 -12q1 -9 10 -9h2q48 5 81 41t33 86q0 52 -37.5 89.5
t-90.5 37.5v0zM633 344v3q0 72 -51.5 124t-124.5 52q-41 0 -77 -18t-61 -49t-33 -71q-5 1 -10 1.5t-10 0.5q-35 0 -64.5 -17.5t-46.5 -46.5t-17 -64q0 -52 37.5 -89.5t90.5 -37.5h95h271q44 0 75.5 31t31.5 75t-31 75t-75 31z" />
    <glyph glyph-name="uniE619" unicode="&#xe619;" 
d="M503 183h-291q-21 0 -41 8.5t-34 22.5t-22.5 34t-8.5 41q0 44 31 75.5t75 31.5q13 0 26 -4l8 2q4 2 5 7q9 57 52 94t101 37q31 0 60 -12.5t49.5 -33t33 -49.5t12.5 -60q0 -3 -0.5 -6t-0.5 -7q1 -5 3 -8q4 -3 9 -3q6 1 9 1q28 0 50 -16t31 -42q3 -10 13 -7t7 13
q-7 22 -22 38t-35.5 25t-42.5 10v2q0 48 -23.5 88.5t-64 64t-88.5 23.5q-63 0 -110.5 -39t-61.5 -99q-10 2 -20 2q-52 0 -89.5 -37.5t-37.5 -90t37.5 -90t89.5 -37.5h291q9 2 11 10q0 11 -11 11v0zM447 116q-8 7 -15 0l-12 -12l-11 12q-3 3 -7.5 3t-7.5 -3t-3 -7.5t3 -7.5
l12 -11l-12 -12q-7 -7 0 -15l8 -3q4 0 7 3l11 12l12 -12q1 -1 3 -2t4 -1q5 0 8 3q7 8 0 15l-12 12l12 11q7 7 0 15zM347 12q-8 8 -15 0l-11 -11l-12 11q-7 8 -14.5 0.5t-0.5 -14.5l12 -12l-12 -11q-7 -8 0 -15l8 -3l7 3l12 11l11 -11l7 -3q2 0 4 1l4 2q3 3 3 7.5t-3 7.5
l-12 11l12 12q7 7 0 14zM247 116q-8 7 -15 0l-12 -12l-11 12q-7 7 -15 0l-2 -4q-1 -2 -1 -4t1 -4t2 -3l12 -11l-12 -12q-7 -7 0 -15l8 -3q4 0 7 3l11 12l12 -12q1 -1 3 -2t4 -1q4 0 8 3q7 8 0 15l-12 12l12 11q7 7 0 15zM147 12q-8 8 -15 0l-12 -11l-11 11q-3 3 -7.5 3
t-7.5 -3q-7 -7 0 -14l12 -12l-12 -11q-7 -8 0 -15l8 -3l7 3l11 11l12 -11q3 -3 7 -3l8 3q3 3 3 7.5t-3 7.5l-12 11l12 12q7 7 0 14zM923 44q-33 -15 -70 -15q-38 0 -77 22q-48 28 -98 28q-86 0 -127 -54q-6 -8 2 -14.5t15 1.5q26 33 79 43q16 3 31 3q13 0 24.5 -1.5t19 -3.5
t16.5 -6t14 -6.5t13 -7.5q15 -8 24 -12.5t26.5 -8.5t37.5 -4q55 0 81 19q9 6 3 14.5t-14 2.5v0zM923 136q3 3 7.5 2t6.5 -4.5t1.5 -7.5t-4.5 -7l-2 -1q-1 -1 -5 -3t-8.5 -3.5t-11.5 -4t-14.5 -4t-18 -2.5t-21.5 -1q-43 0 -88 25q-11 7 -17 10t-17 7t-24 6t-29 2
q-12 0 -23 -1.5t-20 -4t-17.5 -6t-15 -7t-12.5 -7.5t-9.5 -7t-6.5 -6l-4 -5q-2 -1 -2 -2q-3 -3 -7 -3.5t-8 1.5q-8 7 -2 15q1 1 3 3.5t8 8t13 10.5t18 11t23 10.5t28.5 7.5t33.5 3q18 0 32.5 -2.5t27 -7t19.5 -7.5l19 -10q13 -8 21 -12t23 -7.5t33 -3.5q13 0 25 1.5
t19.5 3.5t14 5t8.5 4t3 1v0zM678 263q18 0 32.5 -2t27 -7t19.5 -8l19 -10q13 -8 21 -11.5t23 -7.5t33 -4q47 0 70 16q2 1 5 1.5t5.5 -1t3.5 -3.5q2 -4 1.5 -8t-4.5 -7q-3 -2 -9.5 -5.5t-27 -8.5t-44.5 -5q-43 0 -88 26q-7 4 -11 6l-11 6q-7 3 -13 4l-14 4q-8 2 -17.5 3
t-20.5 1q-21 0 -40 -5t-30.5 -10.5t-21.5 -13.5t-13 -11t-5 -6q-3 -3 -7 -3.5t-8 2.5q-8 6 -2 14q29 36 84 49q21 5 43 5v0zM427 574q-9 -6 -15 3q-4 8 3 14q45 32 101 32q24 0 47.5 -6.5t43.5 -19t36 -29t27.5 -38t16.5 -45.5q10 2 20 2q53 0 90 -37.5t37 -89.5
q0 -27 -10 -50.5t-29 -41.5q-1 -2 -3 -2.5t-4 -0.5q-1 0 -2 1h-4l-2 2q-3 3 -2.5 7.5t3.5 7.5q16 15 24.5 35t8.5 42q0 12 -3 24t-8.5 22.5t-12.5 20t-16.5 16.5t-20 12.5t-22.5 8t-24 2.5t-26 -3q-4 -1 -8 1.5t-4 6.5q-9 57 -52.5 94t-100.5 37q-49 0 -89 -28z" />
    <glyph glyph-name="uniE61A" unicode="&#xe61a;" 
d="M642 76h-55l20 42q4 9 -5 14q-4 2 -8 0.5t-6 -5.5l-28 -56q-2 -6 1 -10.5t9 -4.5h55l-45 -88q-5 -9 4 -14q1 0 2.5 -0.5t2.5 -0.5q3 0 5.5 1.5t3.5 4.5l53 102q3 5 0 10t-9 5v0zM760 491q-9 0 -20 -2q-13 61 -61 99.5t-110 38.5q-18 0 -35.5 -3.5t-34 -10.5t-31.5 -18
q-8 -6 -2 -14.5t14 -2.5q40 28 89 28q23 0 44.5 -6t39.5 -18t32 -28t23.5 -36t13.5 -43q1 -4 4.5 -6.5t8.5 -1.5q13 3 25 3q22 0 41.5 -8.5t34 -22.5t23 -34t8.5 -41q0 -41 -27.5 -71.5t-68.5 -34.5q-10 -1 -9 -12q1 -9 10 -9h2q48 5 81 41.5t33 85.5q0 52 -37.5 89.5
t-90.5 37.5v0zM632 187h-359h-7q-44 0 -75.5 31t-31.5 75t31.5 75.5t75.5 31.5q4 0 8 -0.5t8.5 -1t9 -2t8.5 1t4 7.5q9 57 52.5 94t100.5 37q64 0 109.5 -45.5t45.5 -109.5q0 -4 -1 -13q0 -5 3.5 -8t8.5 -3q5 1 9 1q36 0 61 -25t25 -60.5t-25 -60.5t-61 -25v0zM633 379
q44 -1 75 -32t31 -75q0 -14 -4 -28t-11 -25.5t-16.5 -21.5t-21.5 -16.5t-25.5 -10.5t-28.5 -4h-152v-1v-1l-44 -88h55q6 0 9 -5t0 -10l-53 -102q-2 -6 -9 -6l-5 1q-9 5 -4 14l45 88h-55q-3 0 -5.5 1t-3.5 3.5t-1.5 5t1.5 5.5l48 95h-97h-31q-1 0 -1 -1v-1l-44 -88h55
q6 0 9 -5t1 -10l-54 -102q-1 -3 -3.5 -4.5t-5.5 -1.5t-5 1q-9 5 -4 14l45 88h-55q-6 0 -9 5q-1 2 -1.5 4.5t1.5 5.5l48 95h-41q-53 0 -90.5 37.5t-37.5 90t37.5 90t90.5 37.5h4q2 0 4 -0.5t4 -0.5t4 -0.5t4 -0.5q13 60 61 99t110 39q73 0 124.5 -51.5t51.5 -124.5v-2z" />
    <glyph glyph-name="uniE61B" unicode="&#xe61b;" 
d="M674 244q-13 0 -26 -2t-23.5 -5t-20.5 -7t-17 -8t-14 -9t-11 -8.5t-8 -6.5l-4 -6l-3 -2q-6 -9 2 -15t15 2q2 2 5 5.5t13 11t22 13.5t31 11t39 5q10 0 18.5 -1t15 -2t13 -3t11 -4t10.5 -5t9.5 -4.5t9.5 -5.5q11 -6 17.5 -9.5t18 -7.5t24.5 -6t28 -2q24 0 45 5t26.5 8
t10.5 6q4 3 4 9l-2 5q-6 9 -14 3q-4 -2 -9.5 -4.5t-23 -6.5t-37.5 -4q-38 0 -77 22q-48 28 -98 28v0zM129 12q-9 0 -15 -6t-6 -14.5t6 -14.5t14.5 -6t14.5 6t6 14q0 6 -2.5 10.5t-7.5 7.5t-10 3zM229 112q-9 0 -15 -6t-6 -15q0 -5 3 -9.5t7.5 -7.5t10.5 -3q8 0 14 6t6 14.5
t-6 14.5t-14 6zM330 12q-4 0 -8 -1.5t-6.5 -4.5t-4.5 -6.5t-2 -8.5q0 -8 6 -14t14.5 -6t14.5 6t6 14.5t-6 14.5t-14 6zM430 112q-8 0 -14 -6t-6 -14.5t6 -14.5t14 -6q3 0 6.5 1t6 3t4 4.5t2.5 5.5t1 6q0 9 -6 15t-14 6zM431 560q19 14 42 21t47 7q37 0 70 -16.5t55 -46.5
t27 -68q1 -4 5 -7q4 -2 8 -1q14 3 26 3q44 0 75 -31t31 -75q0 -15 -3.5 -28.5t-11 -26t-17.5 -22.5q-8 -7 -1 -15q3 -3 8 -3q4 0 7 3q39 37 39 92q0 52 -37 89.5t-90 37.5q-10 0 -20 -2q-13 61 -61 99.5t-110 38.5q-56 0 -101 -32q-4 -2 -4.5 -6.5t1.5 -7.5q6 -9 15 -3v0z
M507 169q4 0 7 -3t3 -8q0 -2 -1 -4.5t-3.5 -4t-5.5 -1.5h-291q-26 0 -49.5 10t-40.5 27t-27 40.5t-10 49.5q0 53 37.5 90.5t89.5 37.5q5 0 10 -0.5t10 -1.5q13 60 61 99t111 39q72 0 123.5 -51.5t51.5 -124.5v-1v-1q35 -1 62.5 -20.5t38.5 -52.5q1 -4 -1 -8t-6 -5
q-10 -3 -13 7q-6 17 -18 30t-28.5 20.5t-34.5 7.5q-3 0 -10 -1q-4 0 -7.5 3t-3.5 8q1 9 1 13q0 64 -45.5 109.5t-109.5 45.5q-58 0 -101 -37t-52 -94q-1 -5 -5 -7.5t-8 -1.5q-13 4 -26 4q-17 0 -33.5 -5.5t-29.5 -15.5t-22.5 -23t-15 -29t-5.5 -34q0 -44 31 -75t75 -31h291z
M919 25q-4 -2 -9.5 -5t-23 -7t-37.5 -4q-38 0 -77 23q-48 27 -98 27q-13 0 -26 -2t-23.5 -4.5t-20.5 -7t-17 -8.5t-14 -8.5t-11 -8t-7.5 -7.5t-4.5 -5l-3 -3q-6 -8 2 -14.5t15 1.5q5 7 13 14.5t36 19.5t61 12q16 0 29 -1.5t24 -6t17 -7.5t17 -9t17.5 -9.5t18 -8t24.5 -6.5
t28 -2q54 0 82 20q4 3 4 8q0 2 -0.5 3.5t-1.5 2.5q-6 9 -14 3v0zM919 117q-23 -16 -70 -16q-38 0 -77 23q-48 27 -98 27q-37 0 -69.5 -14t-42.5 -23.5t-15 -16.5q-2 -3 -1.5 -7t3.5 -7q8 -7 15 2q5 6 13 13.5t36 19.5t61 12q21 0 38.5 -4t26 -8t22.5 -12q45 -25 88 -25
q54 0 82 19q8 6 2 14.5t-14 2.5z" />
    <glyph glyph-name="uniE61C" unicode="&#xe61c;" 
d="M271 310q-9 0 -15 -6t-6 -14.5t6 -14.5t15 -6q5 0 10 2.5t7.5 7.5t2.5 10q0 9 -6 15t-14 6zM742 191h-499q-5 0 -8 -3t-3 -7q0 -3 1.5 -5.5t4 -4t5.5 -1.5h499q4 0 7.5 3.5t3.5 7.5t-3.5 7t-7.5 3zM371 410q-9 0 -14.5 -6t-5.5 -14.5t5.5 -14.5t14 -6t14.5 6t6 14.5
t-6 14.5t-14 6zM472 310q-2 0 -4.5 -0.5t-4.5 -1.5t-3.5 -2.5t-3 -3.5t-2.5 -4t-1.5 -4t-0.5 -5q0 -5 2.5 -10t7.5 -7.5t10.5 -2.5t10 2.5t7.5 7.5t3 10q0 4 -1 7t-3 5.5t-4.5 4.5t-6 3t-6.5 1zM572 410q-8 0 -14 -6t-6 -15q0 -4 1.5 -8t4 -6.5t6.5 -4t8 -1.5q6 0 10.5 2.5
t7.5 7.5t3 10q0 9 -6 15t-15 6zM673 310q-8 0 -14 -6t-6 -14.5t6 -14.5t14 -6q3 0 5.5 0.5t5 2t4.5 3.5t3 4t2 4.5t1 5.5q0 6 -3 10.5t-7.5 7.5t-10.5 3zM773 410q-3 0 -6 -1t-5.5 -3t-4.5 -4.5t-3 -6t-1 -6.5q0 -5 2.5 -10t7.5 -7.5t10 -2.5q9 0 15 6t6 14.5t-6 14.5t-15 6
z" />
    <glyph glyph-name="uniE61D" unicode="&#xe61d;" 
d="M843 305q11 18 18.5 37.5t12 41.5t4.5 44q0 98 -70 168t-168 70q-67 0 -123 -34.5t-87 -91.5q-12 4 -24 7t-25 5t-26 3t-26 1q-89 0 -165 -44t-120 -120t-44 -165.5t44 -165t120 -119.5t165 -44h366v1q92 7 155.5 75t63.5 161q0 49 -18.5 93t-52.5 77zM815 328l-1 1
q1 0 1 -1zM498 509q10 19 25 34t33.5 26t39.5 17.5t44 6.5q68 0 116.5 -48.5t48.5 -116.5q0 -21 -6 -41.5t-16 -38.5q-16 8 -33 13.5t-36 8.5t-37 3q-26 0 -51 -5q-42 89 -129 141h1zM689 -28l-8 -1h-352q-106 0 -181 75t-75 181t75 181t181 75q74 0 137 -40t94 -107l25 -52
l57 12q17 4 35 4q68 0 116 -48.5t48 -116.5q0 -42 -20 -78.5t-55 -59t-77 -25.5zM914 446h110v-36h-110v36zM622 812h36v-110h-36v110zM925 687l-26 25l-78 -77l26 -26zM459 635l-78 77l-25 -25l77 -78z" />
    <glyph glyph-name="uniE61E" unicode="&#xe61e;" 
d="M272 -35h451q86 0 146.5 57t60.5 138q0 65 -44 118q73 61 73 152q0 56 -29.5 103t-80 74.5t-109.5 27.5q-34 0 -67 -10.5t-60 -28.5t-48 -44t-32 -57q-71 -1 -126.5 -43t-71.5 -107q-31 9 -63 9q-24 0 -47 -5t-43.5 -14.5t-38.5 -23t-32 -30.5t-24.5 -36t-16 -41
t-5.5 -44.5t5.5 -44.5t16 -41t24.5 -36t32 -30t38.5 -23t43.5 -15t47 -5zM740 600q75 0 128 -50t53 -120q0 -75 -60 -126q-17 15 -37 25.5t-43 17t-47 7.5q-16 53 -60 90.5t-102 47.5q14 32 39 56.5t58.5 38t70.5 13.5zM272 319q7 0 14 -0.5t14 -1.5t14 -3l14 -4q7 -2 14 -5
q8 -4 16.5 0.5t9.5 13.5q7 60 55 100.5t112 40.5q61 0 107.5 -36t58.5 -91q4 -13 19 -14h3q46 0 85 -21.5t62 -58t23 -79.5q0 -33 -13.5 -62.5t-36.5 -50.5t-54 -34t-66 -13h-451q-70 0 -119.5 47t-49.5 113t49.5 112.5t119.5 46.5z" />
    <glyph glyph-name="uniE61F" unicode="&#xe61f;" 
d="M512 620q-133 0 -226.5 -93.5t-93.5 -226.5t93.5 -226.5t226.5 -93.5t226.5 93.5t93.5 226.5t-93.5 226.5t-226.5 93.5zM512 44q-106 0 -181 75t-75 181t75 181t181 75t181 -75t75 -181t-75 -181t-181 -75zM512 720zM464 720q0 20 14 34t34 14q13 0 24 -6.5t17.5 -17.5
t6.5 -24q0 -20 -14 -34t-34 -14q-13 0 -24 6.5t-17.5 17.5t-6.5 24zM512 -124zM464 -124q0 20 14 34t34 14q13 0 24 -6.5t17.5 -17.5t6.5 -24q0 -20 -14 -34t-34 -14q-13 0 -24 6.5t-17.5 17.5t-6.5 24zM90 300zM42 300q0 20 14 34t34 14q13 0 24 -6.5t17.5 -17.5t6.5 -24
q0 -20 -14 -34t-34 -14q-7 0 -13 1.5t-11.5 5t-9.5 8t-7.5 9.5t-5 11t-1.5 13zM934 300zM886 300q0 13 6.5 24t17.5 17.5t24 6.5q20 0 34 -14t14 -34q0 -13 -6.5 -24t-17.5 -17.5t-24 -6.5q-20 0 -34 14t-14 34zM214 598zM166 598q0 20 14 34t34 14q13 0 24 -6t17.5 -17.5
t6.5 -24.5q0 -20 -14.5 -34t-33.5 -14q-10 0 -19 4t-15.5 10.5t-10 15.5t-3.5 18zM810 2zM762 2q0 13 6.5 24t17.5 17.5t24 6.5q20 0 34 -14t14 -34q0 -13 -6 -24.5t-17.5 -17.5t-24.5 -6q-20 0 -34 14t-14 34zM214 2zM166 2q0 13 6 24t17.5 17.5t24.5 6.5q19 0 33.5 -14.5
t14.5 -33.5q0 -13 -6.5 -24.5t-17.5 -17.5t-24 -6q-20 0 -34 14t-14 34zM810 598zM762 598q0 13 6.5 24.5t17.5 17.5t24 6t24.5 -6t17.5 -17.5t6 -24.5t-6 -24t-17.5 -17.5t-24.5 -6.5t-24 6.5t-17.5 17.5t-6.5 24z" />
    <glyph glyph-name="uniE620" unicode="&#xe620;" horiz-adv-x="1025" 
d="M934 216v416q0 67 -47.5 114.5t-114.5 47.5h-520q-67 0 -114.5 -47.5t-47.5 -114.5v-520q0 -67 47.5 -114.5t114.5 -47.5h520q39 0 73 17.5t57 48t29 68.5q-10 4 -22 9.5t-33 14.5t-41.5 18t-45.5 20t-49.5 22t-48.5 21.5t-46.5 21t-39.5 18.5q-39 -47 -77 -77t-86.5 -48
t-104.5 -18q-87 0 -140 46.5t-46 113.5q2 16 7 31.5t14.5 33t26 31.5t39 24.5t56.5 15t75 0.5q22 -2 43 -6l33 -5q12 -2 34.5 -8.5t28 -8t34.5 -11.5t33 -11q30 54 47 115h-327v32h162v59h-198v35h198v84q2 14 16 14h81v-98h211v-35h-211v-59h172q-23 -95 -70 -175
q11 -4 31.5 -11t46 -14.5t53.5 -16.5t53.5 -17t47 -14.5t33.5 -10.5zM324 142q-44 0 -74.5 12t-43 31t-17 36t-2.5 31q2 6 4.5 12.5t6.5 13t9.5 12.5t12 11.5t15 10t18 8t21.5 5.5t24 2q58 0 113.5 -15t120.5 -47q-45 -59 -98.5 -91t-109.5 -32z" />
    <glyph glyph-name="uniE621" unicode="&#xe621;" 
d="M512 -107q-223 0 -325 80.5t-102 247.5q0 137 93 263t224 172h220q131 -46 224 -172t93 -263q0 -41 -6 -77t-18.5 -67t-31.5 -56.5t-45 -46t-59 -36t-73.5 -25.5t-89 -15t-104.5 -5zM630 256q8 0 14.5 3t11.5 8t7.5 11.5t2.5 13.5q0 10 -4.5 18.5t-13 13.5t-18.5 5h-73v1
v1l86 88q17 19 -7 43q-7 7 -16.5 10.5t-18.5 2t-14 -7.5l-74 -79l-80 80q-5 5 -12.5 5.5t-16 -3t-15.5 -9.5q-10 -11 -12.5 -24t5.5 -20l81 -82q-2 -3 -3 -6h-66v0q-15 0 -25.5 -11t-10.5 -26q0 -9 4.5 -17.5t13 -13.5t18.5 -5v0h73v-36h-73v0q-15 0 -25.5 -10.5t-10.5 -26
t10.5 -26t25.5 -10.5v0h73v-36v-9q0 -13 6 -23t16.5 -16.5t22.5 -6.5q7 0 14 2.5t12.5 6.5t10 10t6.5 12.5t2 14.5v2v4q0 1 -1 3h1v36h73q15 0 25.5 11t10.5 25q0 10 -4.5 18.5t-13 13.5t-18.5 5h-73v36h73zM684 801l-7 -10h-1l-64 -81h-218l-64 81q-1 0 -2 1l-7 9l2 2l-1 2
l-1 5q0 19 18 25v2q10 2 27 5t60.5 8t76.5 5q16 0 33.5 -0.5t33 -2.5t30.5 -4t26.5 -4t21 -3.5t13.5 -2.5l5 -1l1 -2q4 -1 7 -3.5t5.5 -6t4 -7.5t1.5 -8q0 -2 -1 -5l-1 -1z" />
    <glyph glyph-name="uniE622" unicode="&#xe622;" 
d="M954 373q-6 0 -20 5t-31 13t-36 17.5t-37 19.5t-32.5 18.5t-24 14t-10.5 6.5q-8 8 -6.5 16.5t11.5 10.5l79 10q-32 84 -98.5 145t-156.5 82q-94 22 -187.5 -8t-160.5 -103t-89 -170q-4 -22 -19 -22q-16 1 -59 21q-1 1 -5 2.5t-5 2t-3 2t-2 3t-0.5 4t0 5.5t1.5 8
q15 74 53.5 140t92.5 113t121 79.5t139.5 39t148.5 -8.5q100 -24 180.5 -87t127.5 -152t54 -190q1 -10 -0.5 -17t-5.5 -11.5t-9 -6.5t-11 -2zM631 318q16 0 26.5 -10.5t10.5 -26t-10.5 -26t-26.5 -10.5h-73v-46q0 -19 -13.5 -32.5t-32.5 -13.5t-32.5 13.5t-13.5 32.5v46h-73
q-15 0 -26 10.5t-11 26t11 26t26 10.5h73v37h-73q-10 0 -18.5 5t-13.5 13.5t-5 18.5q0 15 11 25.5t26 10.5h73v3l-81 81q-20 20 -6 45l6 8q11 11 26 11t26 -11l75 -75l74 75q5 4 10 7t10.5 3.5t11.5 0t11 -3.5t10 -7q10 -11 10 -26t-10 -26l-81 -81v-4h74q9 0 17.5 -4.5
t13.5 -13t5 -18.5q0 -15 -10.5 -26t-25.5 -11h-74v-37h74h-1zM263 266q12 -7 10 -19t-15 -13q-18 -2 -74 -7q34 -79 99 -135.5t150 -76.5q95 -22 187.5 7t159 100.5t87.5 168.5q1 0 1 1.5t0.5 2.5t0.5 3t1 5q1 6 2.5 9t6 7t12.5 0q31 -11 71 -22q9 -2 10.5 -7t-0.5 -13
q0 -4 -2 -11q-28 -126 -113.5 -219t-205 -130.5t-243.5 -8.5q-151 36 -251 155t-112 273q-1 25 14 32.5t34 -3.5q15 -8 86.5 -49.5t83.5 -49.5z" />
    <glyph glyph-name="uniE623" unicode="&#xe623;" 
d="M870 7h-713q-24 0 -45.5 12t-33.5 33t-12 46v347h895v-347q0 -38 -27 -64.5t-64 -26.5zM632 244l-36 -128h219l36 128h-219zM66 664q0 38 26.5 64.5t64.5 26.5h713q37 0 64 -26.5t27 -64.5v-91h-895v91z" />
    <glyph glyph-name="uniE624" unicode="&#xe624;" 
d="M512 831q-91 0 -174 -35.5t-143 -95.5t-95.5 -142.5t-35.5 -173.5q0 -57 14 -112t39.5 -102t62.5 -87.5t81.5 -70.5t97.5 -49.5t110 -24.5h2h3q21 0 36.5 14t17.5 35q2 22 -12.5 39.5t-36.5 19.5q-131 12 -219 109t-88 229q0 92 46 170t124 123.5t170 45.5q46 0 90 -12
t81.5 -34t68.5 -53.5t53 -68.5t34.5 -81t12.5 -90q0 -82 -37 -154q-7 -14 -6 -28t8.5 -26t20.5 -19q20 -10 41.5 -3.5t31.5 26.5q49 96 49 204q0 91 -35.5 173.5t-95.5 142.5t-143 95.5t-174 35.5zM724 308q19 -3 33.5 8t16.5 29q3 19 3 39q0 72 -36 134t-97.5 97.5
t-133.5 35.5q-22 0 -43.5 -3.5t-41.5 -10t-38.5 -16t-35 -22t-31 -27t-26.5 -31t-22 -35t-16.5 -38.5t-10 -41t-3.5 -43q0 -84 48.5 -153.5t126.5 -97.5q3 -1 5.5 -2t5.5 -1h4q9 0 17.5 3.5t14.5 10t10 15.5q6 17 -1.5 33.5t-24.5 22.5q-53 19 -85.5 65.5t-32.5 103.5
q0 74 52.5 126.5t127 52.5t127 -52.5t52.5 -126.5q0 -13 -2 -26q-1 -6 0 -12t3 -11t5.5 -9.5t8 -8t10 -6t10.5 -3.5zM572 409q-16 23 -41 28t-43 -7q-18 -11 -25 -29.5t2 -44.5q3 -6 18.5 -41.5t38 -84t44.5 -97.5t40 -88t24 -49q18 -36 56.5 -46.5t68.5 7.5
q30 17 39.5 51.5t-12.5 75.5q-17 26 -65 101t-93.5 145t-51.5 79z" />
    <glyph glyph-name="uniE625" unicode="&#xe625;" 
d="M512 833q-8 -7 -22 -18.5t-54.5 -47.5t-77 -72t-81 -87t-76.5 -97.5t-54 -98.5t-22 -94q0 -77 30.5 -147t82.5 -120.5t123.5 -80.5t150.5 -30q105 0 194 50.5t141 137.5t52 190q0 33 -13 72t-35.5 76.5t-51.5 77t-61 75t-64.5 68t-61.5 59t-51.5 46t-35.5 30.5zM478 108
l34 169h-169l219 269l-33 -168h168z" />
    <glyph glyph-name="uniE626" unicode="&#xe626;" 
d="M773 832h-522q-25 0 -46.5 -12.5t-34 -34t-12.5 -46.5v-708q0 -26 12.5 -47.5t34 -34t46.5 -12.5h522q38 0 65.5 27.5t27.5 66.5v708q0 38 -27.5 65.5t-65.5 27.5zM456 776h112q8 0 13 -5.5t5 -12.5q0 -4 -0.5 -6.5t-2.5 -5t-4 -4t-5 -2.5t-6 -1h-112q-8 0 -13.5 5.5
t-5.5 13t5.5 13t13.5 5.5zM512 -7q-23 0 -39.5 16.5t-16.5 39.5q0 15 7.5 28t20.5 20.5t28 7.5q23 0 39.5 -16.5t16.5 -39.5q0 -35 -31 -50q-13 -5 -25 -6zM754 180h-484v503h484v-503z" />
    <glyph glyph-name="uniE627" unicode="&#xe627;" 
d="M747 781q-87 7 -156.5 -29t-113.5 -100q-19 47 -73.5 75.5t-113.5 27.5q-42 0 -84 -16t-77 -44t-58.5 -73.5t-26.5 -100.5q-4 -57 9 -103t38 -81t52 -62.5t61 -64t55 -69.5q10 -15 19.5 -33.5t16.5 -35t13.5 -33.5t11 -30t8 -24t4.5 -17l2 -5q66 24 162 68
q-106 69 -124 177q-16 93 26 168.5t125 94.5q10 2 28.5 2.5t29.5 -0.5q37 -3 83 -26q46 59 116 75q24 6 45 6q14 0 28.5 -2t28 -6t26.5 -9.5t25 -12.5t23 -15t21 -18q1 9 2.5 18t1.5 18q6 114 -59.5 192.5t-174.5 87.5zM826 468h-10l-12 -2q-5 0 -11 -2q-26 -6 -48.5 -21
t-38 -36.5t-23.5 -47.5q-8 10 -18 18t-21 14t-23 10.5t-24.5 6.5t-25.5 2q-16 0 -31 -3q-61 -14 -92 -73t-20 -126q22 -129 255 -195q86 -24 161 -31q-4 3 -8 10.5t0 36.5t27 66q15 24 43 57.5t43 53.5t24.5 55.5t3.5 78.5q-9 57 -52.5 92.5t-98.5 35.5z" />
    <glyph glyph-name="uniE628" unicode="&#xe628;" 
d="M891 -35h-751q-14 0 -24.5 10.5t-10.5 23.5v213q0 26 11 37t25 -2l102 -79q33 -29 45 -14l117 141q29 36 45 22l101 -87q40 -34 53 -18l249 301q25 28 48 22.5t23 -40.5v-496q0 -5 -1.5 -10t-4.5 -9.5t-7.5 -8t-9.5 -5t-10 -1.5zM599 334q-7 -9 -17 -14.5t-21 -7t-22 2
t-19 10.5l-113 96l-114 -150q-15 -19 -37 -22h-4h-3q-5 0 -9.5 1t-9 2.5t-8.5 3.5t-8 5l-99 81q-17 15 -19.5 37.5t11.5 40.5q6 7 13.5 12t16 7t17 1.5t16.5 -3.5t15 -9l55 -45l114 151q14 18 37.5 21t41.5 -13l114 -95l147 184l-41 34q-22 18 -18 35t32 23l213 45
q28 6 35 -6t-10 -34z" />
    <glyph glyph-name="uniE629" unicode="&#xe629;" 
d="M743 -71h-459q-103 0 -175.5 81.5t-72.5 197t72.5 197t175.5 81.5h459q67 0 124 -37.5t90 -101.5t33 -139.5t-33 -139.5t-90 -101.5t-124 -37.5zM362 247h-52v61q0 15 -10.5 25.5t-24.5 10.5q-10 0 -18 -4.5t-13 -13t-5 -18.5v-61h-60q-15 0 -26 -10t-11 -25t11 -25
t26 -10h60v-52q0 -15 10.5 -26t25 -11t25 11t10.5 26v52h52q15 0 25.5 10t10.5 25q0 10 -4.5 18t-13 12.5t-18.5 4.5zM646 247q-15 0 -25.5 -10t-10.5 -25q0 -7 3 -13.5t8 -11.5t11.5 -7.5t13.5 -2.5q9 0 17.5 4.5t13 12.5t4.5 18q0 6 -1.5 11t-5 9.5t-8 8t-9.5 5t-11 1.5z
M743 344q-15 0 -25 -10t-10 -24.5t10 -25t25 -10.5q6 0 11.5 1.5t9.5 5t7.5 8t5 9.5t1.5 11q0 15 -10 25t-25 10zM743 150q-10 0 -18 -4.5t-12.5 -13t-4.5 -17.5q0 -4 1 -8t2.5 -7.5t4 -6.5t5.5 -5.5t6.5 -4.5t7.5 -3t8 -1q5 0 9.5 1.5t8.5 3.5t7 5.5t5.5 7.5t3.5 8.5t1 9.5
q0 9 -4.5 17.5t-12.5 13t-18 4.5zM840.5 247q-14.5 0 -25 -10t-10.5 -25q0 -10 4.5 -18t13 -12.5t17.5 -4.5q15 0 25.5 10t10.5 25t-10.5 25t-25 10zM551 539h-16h-16h-15h-14h-11h-7h-3v55q0 40 11.5 64.5t30 33t41 11.5t45 3t41 3t30 16.5t11.5 39.5v48h82v-55
q0 -42 -10 -69t-25.5 -37t-35 -14.5t-40 -2.5t-39.5 -0.5t-33.5 -9.5t-22 -28.5t-4.5 -57.5z" />
    <glyph glyph-name="uniE62A" unicode="&#xe62a;" 
d="M946 315l-356 -312q-35 -28 -79 -28t-79 27l-356 312q-13 15 -13 33q0 12 5 22t13 17t19 10q5 2 13 2h105v326q0 17 6 32t17 26t26 17t32 6h423q35 0 58.5 -23t23.5 -58v-326h103h1h1h1q8 0 15.5 -3t13.5 -7.5t10.5 -10.5t6.5 -14t2 -16q0 -18 -12 -32zM625 455
q6 0 12 2.5t9.5 7t5.5 10.5t2 13q0 14 -8 23t-21 9h-72l74 75q10 10 10 24t-10 24q-7 6 -15.5 8.5t-17.5 0t-15 -8.5l-69 -69l-68 69q-10 10 -24.5 10t-24.5 -10t-10 -24.5t10 -24.5l75 -74h-71q-7 0 -12.5 -2.5t-9.5 -6.5t-6 -10t-2 -13q0 -4 0.5 -7.5t2 -7t3.5 -6.5
t4.5 -5t5.5 -3.5t6.5 -2.5t7.5 -1h73v-41h-73q-5 0 -9 -1t-7.5 -2.5t-6 -4.5t-4 -6.5t-2.5 -7.5t-1 -9q0 -14 8 -24t22 -10h73v-49q0 -6 1.5 -11t4 -9.5t6 -8.5t8 -6.5t10 -3.5t11 -1t11 1t10 3.5t8 6.5t6.5 8.5t4 9.5t1 11v49h76q13 0 20 8.5t7 22.5q0 34 -31 34h-72v41h74
z" />
    <glyph glyph-name="uniE62B" unicode="&#xe62b;" 
d="M889 604h-1q0 -1 -1 -1h1l-165 -146l48 -183l16 -61l54 -208q4 -16 -7 -27q-8 -8 -19.5 -8t-19.5 8l-1 1l-1 1h-1v2h-1l-246 316l-138 -122l-33 -145q0 -11 -8 -18q-8 -8 -19 -8t-19 8q-5 5 -7 11l-49 121l-122 49h-2v1l-4 2q-2 1 -4 3t-4 5t-3 5.5t-1 5.5v6q0 3 1 6
t3 5.5t4 4.5q7 8 18 8l146 32l123 137l-316 243v1h-1q0 1 -1 1q-8 8 -8 19.5t8 19.5q10 9 24 7v0q1 0 4 -1l201 -50l61 -15l188 -46l146 162l1 1l1 1q34 34 85 40t84 -25q31 -33 25 -83.5t-40 -85.5zM812 750q-24 0 -43 -15.5t-24 -38.5l94 -79q19 8 31 25t12 39
q0 28 -20.5 48.5t-49.5 20.5z" />
    <glyph glyph-name="uniE62C" unicode="&#xe62c;" 
d="M827 362h-240v-109h116v22q0 24 7 32.5t18.5 4t28.5 -20.5l121 -95q7 -5 10 -12.5t3 -11.5q0 -13 -13 -23l-121 -88q-18 -14 -29 -19t-18 2.5t-7 32.5v22h-116v-96q0 -11 -4 -21.5t-11 -18.5t-16.5 -14.5t-21.5 -10t-24 -3.5q-32 0 -54.5 20t-22.5 48v96h-232
q-28 0 -48 22.5t-20 54.5t20 54.5t48 22.5h232v109h-116v-22q0 -65 -55 -17l-121 95q-13 11 -13 25q0 3 1 6.5t4 7.5t8 8l121 88q25 23 40 21.5t15 -36.5v-22h106l-189 199q-14 15 -18 33.5t2 37t21 31t34.5 16.5t38.5 -2.5t33 -20.5l165 -177l165 177q21 22 52 24t54 -17.5
t24.5 -49.5t-19.5 -52l-189 -199h230q28 0 48 -22.5t20 -54.5t-20 -54.5t-48 -22.5z" />
    <glyph glyph-name="uniE62D" unicode="&#xe62d;" 
d="M129 535l-53 -83l99 -61q1 -1 3.5 -2.5t9 -6t11.5 -10t10.5 -14.5t7.5 -18t0.5 -21.5t-7.5 -25.5q-13 -27 -57 -74.5t-81 -82.5l-37 -35l130 -81q28 61 50.5 108t29 60.5t12.5 29t15 41.5q9 28 13.5 50.5t4 44t-7.5 39t-22 31.5q-37 38 -55.5 54t-75.5 57zM463 640l30 59
l-119 34q-1 -2 -2 -5.5t-5 -15t-9 -23.5t-12 -28.5t-15 -32.5t-18.5 -34t-21.5 -33.5t-24.5 -31.5t-27.5 -27q5 -3 14 -8t27 -15.5t30 -16.5l12 -7q33 34 64 72q30 13 55 23q-9 -17 -19 -33.5t-22.5 -35.5t-26 -37t-26.5 -31l51 -44q34 33 72 73h43v-74h-167v-59h167v-141
q-1 0 -3.5 0.5t-3.5 0.5q-19 1 -35 5.5t-23 15.5q-6 10 -7 24.5t1.5 35.5t2.5 26h-115l-4 -2q-1 -3 -1.5 -7t-2 -17t-1.5 -25.5t2 -29.5t6.5 -31t14 -29t22.5 -25t34 -16t47 -5q180 -5 284 75l17 -63l95 40l-64 157l-77 -24l14 -54q-28 -21 -67 -34v123h163v59h-163v74h164
v59h-291q36 43 42 63l-51 14q339 121 337 -63v-336q1 -3 1 -7t-1 -16t-4.5 -22.5t-12 -23t-21 -21.5t-33.5 -14t-48 -3l-71 15l-17 -68q4 -1 11 -2.5t28 -5.5t42 -6t49.5 -1.5t53.5 5t51.5 16t46 29t34 47t18.5 67.5t6.5 76t3 69.5t0 61t-2 53.5t-3 45t-3.5 36t-3.5 26
t-2.5 17l-1 5q-1 3 -2 7.5t-7.5 18.5t-16 26t-29 27t-44.5 25.5t-64.5 17.5t-87 6t-114 -12t-143.5 -33zM200.5 566q35.5 0 60.5 25t25 60t-25 60t-60.5 25t-60.5 -25t-25 -60t25 -60t60.5 -25z" />
    <glyph glyph-name="uniE62E" unicode="&#xe62e;" 
d="M742 788h-416q-51 0 -80.5 -6t-47.5 -25t-24 -47t-6 -77l4 -1h-3q-44 0 -44 -62.5t44 -62.5l-1 1v-88l1 6q-24 0 -34 -17t-10 -46q0 -63 44 -63l-1 6v-96l1 9q-44 0 -44 -63q0 -16 1 -26.5t4 -22t11 -17t20 -5.5h7q0 -34 4 -55.5t13.5 -37t28.5 -23t44.5 -10.5t67.5 -3
h416q45 0 73 5.5t47 21.5t26.5 42t7.5 67v541q0 51 -7 80.5t-26 46.5t-46 22.5t-75 5.5zM677 324q34 0 35 -35q2 -38 -39 -37q-7 0 -30 0.5t-43 0.5l-20 1v-79q0 -16 -12 -21.5t-32 -5.5q-43 0 -43 27v79h-97q-17 0 -26 9t-9 26v8v-2q1 10 5.5 16.5t11.5 9.5t18 3h97v52h-97
q-7 0 -12 1.5t-10 5.5t-8 13t-3 22q0 17 10 27t27 10h73l-50 47l-23 23q-8 8 -10.5 18t-0.5 20t9 18v1l2 2q6 6 13.5 9t15.5 3t15.5 -3t13.5 -9l3 -3l75 -76l78 79q8 8 19 11t21.5 0t18.5 -11q12 -12 12 -29.5t-12 -29.5l-71 -70h73q18 0 27.5 -10t9.5 -27q0 -18 -9.5 -30
t-25.5 -12h-97v-52h97z" />
    <glyph glyph-name="uniE62F" unicode="&#xe62f;" 
d="M991 511q-1 15 -21 20q-8 2 -226.5 51.5t-446.5 101t-234 51.5q-14 2 -22 -6.5t-7 -21.5q0 -5 4 -13l291 -644l4 -4l4 -4q2 -2 5 -3.5t5.5 -2t5.5 -1t5.5 -0.5t5.5 2q9 4 64.5 44t108 78t56.5 40q3 0 73.5 -37.5t73.5 -37.5q9 0 15.5 6.5t6.5 15.5l2 11q1 11 2.5 28.5
t4 38.5t4.5 42t4 38t3 28l1 11l205 157q3 3 3 11zM690 240l-562 425l556 -285q6 -3 8.5 -6.5t3 -5.5t0.5 -9z" />
    <glyph glyph-name="uniE630" unicode="&#xe630;" 
d="M188 412q5 2 44.5 18t44.5 17q-34 38 -76 134q-16 -4 -40 -11t-40 -12l-16 -4q79 -134 83 -142zM579 299l73 -82q34 11 77 37t79 54t67 55t48 44l18 17l-83 85l-5 -7t-16 -20t-26.5 -29t-39 -36t-50.5 -39.5t-64 -40.5t-78 -38zM430 460l67 -35q28 28 56.5 68.5
t43.5 67.5l15 26l-104 39q-41 -113 -78 -166zM661 430q30 14 66 43t67 60t57.5 60t41.5 47t15 19l-82 77q-5 -7 -13.5 -19t-35 -45.5t-52.5 -62t-62 -59.5t-68 -48zM612 172l-192 102h189v111h-197v51h-129v-51h-214v-111h163q-39 -53 -69 -81t-94 -68l66 -97
q55 41 85.5 71.5t62.5 71.5v-197h129v197l140 -82zM878 294q-4 -7 -11.5 -18t-37.5 -42.5t-66.5 -59.5t-101.5 -60.5t-139 -52.5l39 -87q47 12 92 28t79 31.5t66 35t53 35t42.5 33.5t31.5 28.5t22 23t13 13.5zM315 466q81 -1 94 0q-8 43 -19 132l-113 -18q2 -6 8.5 -21
t9.5 -22.5t7.5 -20t7.5 -24.5t5 -26zM604 674l-33 114q-3 -3 -10.5 -8t-43 -17.5t-84 -22.5t-140.5 -19t-206 -12l5 -93q402 -8 498 46q11 7 14 12z" />
    <glyph glyph-name="uniE631" unicode="&#xe631;" 
d="M405 695q-6 24 -25.5 39.5t-44.5 15.5q-16 0 -30.5 -7.5t-24.5 -19.5t-14 -28l-226 -658q-12 -33 27 -33h50h1q7 0 11.5 3t8 8t6.5 13q3 7 20 47t32 77l16 36h254l62 -167v0q3 -8 10 -12.5t15 -4.5h52q11 0 19.5 11t4.5 23q-1 4 -57 168t-112 326zM229 276l102 316
l109 -316h-211zM990 37l-226 658q-6 24 -25.5 39.5t-44.5 15.5t-44.5 -15.5t-25.5 -39.5l-79 -225l54 -160l95 279l105 -313h-184l26 -79h184l63 -176v0q3 -8 10 -12.5t15 -4.5h52q12 0 20 9.5t5 23.5z" />
    <glyph glyph-name="uniE632" unicode="&#xe632;" 
d="M962 45h-73q-7 53 -47.5 89.5t-95.5 36.5q-36 0 -67.5 -16.5t-51.5 -45.5t-24 -64h-56q-22 0 -38 15.5t-16 38.5v487q0 22 16 38t38 16h415q15 0 27.5 -7t19.5 -19.5t7 -27.5v-487q0 -23 -15.5 -38.5t-38.5 -15.5zM403 45h-37q-7 53 -48 89.5t-95.5 36.5t-95.5 -36.5
t-48 -89.5h-37q-15 0 -25.5 10.5t-10.5 25.5v198q0 35 33 96t76.5 109t70.5 48h217q10 0 18 -5t13 -13.5t5 -17.5v-415q0 -15 -10.5 -25.5t-25.5 -10.5zM331 442q-57 2 -125 0q-15 -1 -41 -29.5t-47.5 -68t-21.5 -65.5v-18h235v181zM222.5 117q37.5 0 64 -26.5t26.5 -63.5
q0 -19 -7.5 -35.5t-19.5 -28.5t-28.5 -19.5t-34.5 -7.5q-38 0 -64.5 26.5t-26.5 64t26.5 64t64 26.5zM750.5 117q39.5 0 67 -28t27.5 -67t-27.5 -67t-67 -28t-67 28t-27.5 67t27.5 67t67 28z" />
    <glyph glyph-name="uniE633" unicode="&#xe633;" 
d="M990 296q0 2 -0.5 3.5t-1.5 3.5q-1 3 -3 5l-1 1q-2 2 -4 3h-1q-4 2 -7 2l-146 -15q-7 0 -12 -5t-5 -12q0 -3 1 -6t2.5 -5t3.5 -3.5t5 -2.5t6 -1l67 1v-1h2q1 1 2 1q-77 -81 -187 -131q-109 -49 -218.5 -54t-192 35t-116.5 116q-17 37 -19 80t10 85t37.5 84.5t61.5 80.5
t83.5 71.5t102.5 57.5q2 2 6.5 3.5t6.5 2.5q-2 0 -3.5 -0.5t-2.5 -0.5q13 0 23 10t10 23q0 9 -4.5 17t-12 12t-16.5 4q-7 0 -14 -3q-34 -11 -66 -26q-78 -35 -144 -86t-110.5 -108.5t-70.5 -121.5t-25.5 -125.5t24.5 -119.5q42 -93 142.5 -143.5t232 -46t262.5 63.5
q149 67 245 183v1v-80q0 -4 2.5 -8t6.5 -6t9 -2q4 0 8 2.5t6.5 6.5t2.5 9l10 129l1 1h-1zM713 363q-12 24 -35 38q-7 5 -15 9t-17 7.5t-19 5.5q-5 2 -11 3l-12 4l-12 2t-12 3v109q2 -1 4 -1t4 -0.5t3 -1.5q4 -1 7 -2t6 -2.5t5.5 -3t4.5 -3.5q9 -6 14 -15q5 -8 5 -18
q0 -3 1 -6.5t3.5 -5.5t6 -3.5t6.5 -1.5h44q8 0 13 5q2 3 3.5 6.5t0.5 6.5q-1 27 -13 48q-6 11 -14.5 20t-18.5 16q-20 13 -47 20q-16 4 -38 6v16q0 4 -1.5 7t-3.5 6q-5 5 -13 5h-31q-7 0 -12 -5q-2 -3 -3.5 -6t-1.5 -7v-16q-23 -1 -39 -6q-27 -7 -48 -22q-7 -5 -13.5 -10.5
t-11.5 -12t-10 -13.5q-13 -23 -13 -50q0 -5 1 -10v-8q1 -5 2 -9t2.5 -8.5t3.5 -8.5t4 -7q6 -10 15 -19t19 -15q21 -13 48 -21q9 -3 18.5 -5.5t20.5 -4.5v-125q-17 3 -21 5q-8 3 -15 7t-13 9t-10 10.5t-7 12.5q-6 12 -6 26q0 7 -5 12.5t-12 5.5h-44q-4 0 -7 -1.5t-6 -4.5
q-5 -6 -4 -14v-3q0 -3 0.5 -5.5t0.5 -4.5v-4l2 -6v-4l1 -2q13 -52 57 -78q34 -20 90 -26v-15q0 -4 1.5 -7t3.5 -6q1 -1 2.5 -2t3 -1.5t3.5 -1t3 -0.5h31q8 0 13 5.5t5 12.5v15q22 2 40 7q9 2 18 5.5t17.5 7.5t15.5 9q24 14 39 36q16 23 16 52q0 8 -1 16t-2.5 15.5t-4 14
t-5.5 12.5zM513 448q-3 0 -4.5 0.5t-4 1.5t-4.5 1q-7 2 -13 5t-11 6t-8.5 6t-5.5 7q-1 2 -1.5 3.5t-1.5 3.5t-1 4t-0.5 4.5t-0.5 5.5q0 10 5 18q3 5 6.5 9t7.5 7q11 7 24 11q6 2 13 3v-96zM642 288q-3 -5 -7.5 -10t-10.5 -9q-11 -8 -27 -13q-4 -2 -8.5 -2.5t-8.5 -1.5v113
l18 -4q8 -2 15 -5t13 -6q5 -3 9 -7t7 -9q5 -8 5 -23q0 -5 -0.5 -8.5t-1.5 -7t-3 -7.5z" />
    <glyph glyph-name="uniE634" unicode="&#xe634;" 
d="M912 653q-41 35 -93 47.5t-100.5 3t-92.5 -33.5t-75 -59q-16 21 -35 39.5t-44 36t-54 28.5t-61 16.5t-69.5 0.5t-75.5 -20q-106 -42 -151 -146q-52 -118 3 -245q45 -104 152 -180q25 -18 53 -33.5t53.5 -27.5t52 -22.5t48 -17.5t40.5 -12l68 -15l5 6q3 3 9 4t12 9t14 9
q4 1 7.5 2.5t5.5 3.5t3 3.5t1 2.5l1 1q-7 1 -20 3.5t-50.5 13.5t-74 25t-84 40t-86.5 56q-60 48 -91 101.5t-32 101.5t13.5 89t41.5 73q37 43 86 62t95 15t86 -27q26 -16 46.5 -34.5t33.5 -38.5t19 -41.5t3 -42.5q-2 -25 -11 -31.5t-18 1t-14 21.5q-3 9 -4 17.5t-0.5 15.5
t2.5 14.5t3.5 11.5t4.5 10.5t3 7.5q-5 7 -9.5 12.5t-10 11t-10.5 9.5q-24 -45 -17 -82q4 -27 23 -46t40 -18t30 26q9 16 9 55.5t-15 75.5q33 32 72.5 47t96.5 3q61 -12 95.5 -72t10.5 -133q-12 -36 -34 -62t-45.5 -38t-45 -18.5t-35.5 -7.5h-14q1 -32 -13 -47
q-13 -15 -12 -32.5t-3 -22.5q-5 -6 -5.5 -18.5t1.5 -21.5l1 -10q5 1 13 2.5t32.5 8.5t49 16.5t58 27t62.5 38.5q45 33 77 89t42.5 117t-7 122.5t-66.5 102.5z" />
    <glyph glyph-name="uniE635" unicode="&#xe635;" 
d="M463 217h365v77h-56q45 48 68.5 89.5t25 73t-13 56t-45.5 39.5t-73 22.5t-94 6.5t-110 -10v44q30 8 67.5 13t69 7t58.5 2.5t43 -0.5h16v88q-17 0 -43.5 -2t-94 -13.5t-116.5 -28.5v77h-133v-221q-38 -5 -76.5 -6.5t-65.5 1t-48.5 6t-32.5 6.5l-11 3q0 -7 1 -19t6.5 -46
t16 -65.5t33 -69.5t53 -65t80 -46t110.5 -19zM636 344q-28 -33 -58.5 -52t-57.5 -23t-53.5 1t-49 18t-41.5 29.5t-33.5 34.5t-23 34t-11.5 27q34 -7 88 2.5t90.5 21.5t100.5 34q28 10 41 14.5t35 11.5t31 8.5t22.5 3t15.5 -3.5t4.5 -11.5t-5 -20t-18 -31t-30.5 -42.5
t-47 -56zM668 188v0q-3 -3 -9.5 -8t-25 -18.5t-36.5 -23.5t-42 -18t-43 -8q-23 0 -51 13.5t-51.5 29.5t-61.5 26.5t-80 5.5q-47 -5 -100.5 -23t-72.5 -27.5t-30 -15.5v-1q2 -7 5.5 -16.5t12 -27t24 -34.5t35.5 -28v1l1 -1q8 11 22 27t52 43t71 27q61 0 116 -38
q50 -33 73 -41q24 -7 51 -8q109 0 204 55q4 2 5 3v1h1q-10 66 -65 103zM877.5 184q-34.5 0 -58.5 -24t-24 -58.5t24 -59t58 -24.5q23 0 42 11.5t30 30.5t11 41q0 35 -24 59t-58.5 24z" />
    <glyph glyph-name="uniE636" unicode="&#xe636;" 
d="M816 714h-606q-48 0 -82 -35t-34 -85v-485q0 -49 34 -84t82 -35h606q47 0 81 35t34 84v485q0 33 -15.5 60.5t-42 43.5t-57.5 16zM519 90q-15 0 -26.5 11t-11.5 26t11.5 26.5t26.5 11.5q54 0 100 24t73 67t27 95.5t-27 95.5t-73 67.5t-100 24.5q-81 0 -140 -64.5
t-59 -146.5h72q21 0 22 -4.5t-14 -26.5l-10 -15q-11 -18 -38.5 -61.5t-49.5 -78.5l-21 -34q-30 -44 -33 -13q-1 3 -1 7v105v2v4v2v137q0 110 79.5 188t192.5 78q113 1 194 -77.5t81 -188.5t-80.5 -186t-194.5 -76z" />
    <glyph glyph-name="uniE637" unicode="&#xe637;" 
d="M724 763q-44 25 -94 28.5t-95.5 -15t-78.5 -55.5l366 -213q23 72 -4 144t-94 111zM613 578h3h2l-190 110q-1 0 -1 1q-79 46 -167.5 22t-133.5 -103q-8 -14 -14 -28.5t-9.5 -29t-5 -29.5t-1 -29.5t2.5 -29.5t6.5 -29t10.5 -27.5t14 -26t17.5 -24t20.5 -21.5
q72 112 189.5 178t255.5 66zM848 447l-207 -373q73 -25 145.5 2t111.5 95q40 71 25.5 148.5t-75.5 127.5zM780 480q-58 29 -121 39.5t-124 2.5t-118 -32t-106 -64.5t-85 -94.5l-1 -1l-2 -4l-2 -2q-1 -2 -2 -3q-1 -2 -4 -6q-3 -5 -5 -7q-44 -78 -20.5 -164.5t100.5 -131.5
q78 -45 164.5 -21.5t131.5 100.5v1v0l216 375zM565 128q-37 -63 -106.5 -82t-132 17.5t-81 106.5t17.5 133q4 8 13.5 10.5t17.5 -2t10.5 -14t-2.5 -17.5q-27 -46 -13 -98t60 -78.5t98 -13t78 60.5q5 8 14 10.5t17 -2.5t10.5 -14t-1.5 -17z" />
    <glyph glyph-name="uniE638" unicode="&#xe638;" 
d="M922 651l-25 22l21 24q7 6 10.5 15t1.5 18.5t-8 16.5l-38 43q-10 11 -25 12t-26 -9l-301 -233q-40 18 -83 24.5t-85.5 1t-84 -24.5t-76.5 -49q-95 -83 -103.5 -209t73.5 -221t207.5 -103t220.5 76q79 69 99 171.5t-25 192.5l49 56l30 -27q5 -5 12 -6t14 1.5t12 8.5l30 35
q7 9 7 20.5t-8 18.5l-30 26l38 43l27 -24q8 -7 19 -5.5t19 10.5l29 35q8 9 7.5 20.5t-8.5 19.5zM410.5 140.5q-33.5 -29.5 -77.5 -26.5t-73 36q-15 17 -21.5 37.5t-5 40.5t11 39.5t25.5 34.5q34 29 78 26.5t73 -36t26 -78t-36.5 -74z" />
    <glyph glyph-name="uniE639" unicode="&#xe639;" 
d="M951 357v1v3q-1 43 -9.5 81t-28.5 52q-35 25 -75 -29q-4 -5 -15 -20.5t-16.5 -22.5t-17 -21t-19 -21.5t-19 -18.5t-22 -16.5t-23.5 -11.5t-26.5 -9t-28.5 -3h-274q-17 0 -33 4.5t-28 9.5t-26.5 16.5t-22.5 18t-22 23.5t-19 23.5t-19 25.5t-18 23q-3 5 -6.5 9t-12 12
t-16 11.5t-18.5 3.5t-21 -7q-36 -25 -38 -133v-3v-1v-4v-9v-14v-22v-29v-144v-6v-6q1 -16 3.5 -27t12.5 -28t27 -29.5t49.5 -26t77 -22.5t113 -14.5t154.5 -5.5t154 5.5t113 14.5t77.5 22.5t49.5 26t27 29.5t12.5 28t3.5 27v12v144v21v18v14v11v7v5v2zM266 46
q-49 0 -83.5 34.5t-34.5 83t34.5 83t83.5 34.5q-13 0 -22 -34.5t-9 -83t9 -83t22 -34.5zM266 46q13 0 22 34.5t9 83t-9 83t-22 34.5q49 0 83.5 -34.5t34.5 -82.5q0 -24 -9.5 -46t-25 -37.5t-37.5 -25t-46 -9.5zM543 151l-11 -19q-2 -4 -4.5 -8t-4.5 -7.5t-3 -6.5
q-3 -2 -6 -3q-5 0 -6 3q-3 5 -13 22l-10 19q-2 3 -2 6t1 5t4 3.5t7 1.5h37q9 0 12 -5t-1 -11zM762 46q-49 0 -83.5 34.5t-34.5 83t34.5 83t83.5 34.5q-13 0 -22 -34.5t-9 -83t9 -83t22 -34.5zM762 46q13 0 22 34.5t9 83.5q0 24 -2.5 45.5t-6.5 37t-10 25t-12 9.5
q49 0 83.5 -34.5t34.5 -83t-34.5 -83t-83.5 -34.5zM378 613h272q8 0 15.5 0.5t15.5 2.5q-14 33 -38.5 58t-58 39t-71 14t-70.5 -14t-58 -39t-38 -57q6 -2 13 -3q4 -1 8 -1h10zM92 523q20 13 43 13q46 0 84 -50q2 -3 4.5 -6.5t5.5 -6.5q21 -28 32.5 -42t31 -32.5t40 -26.5
t43.5 -8h276q23 0 43.5 8t40 26.5t31 32.5t32.5 42l10 13q22 28 43.5 39t40.5 11q11 0 22 -3t21 -10q5 17 8 36.5t5 39t2 38.5q-6 67 -37 84q-35 20 -75 -24q-2 -2 -19.5 -22t-22.5 -24.5t-22 -20.5t-27 -21.5t-27 -14.5t-34 -12t-36 -3h-274q-19 0 -36 3t-34 12t-27.5 14.5
t-27 21.5t-21.5 20.5t-22.5 24.5t-19.5 22q-40 44 -75 24q-9 -5 -16 -14t-11 -21t-6.5 -24t-3.5 -25q0 -61 15 -114v0z" />
    <glyph glyph-name="uniE63A" unicode="&#xe63a;" 
d="M333 337q-43 -4 -72 -27q-21 -18 -25 -41.5t7 -44.5t40 -35.5t69 -14.5q48 0 95 29t86 80q-30 15 -53 25t-48.5 18t-50 11t-48.5 0zM524 815q-90 2 -173 -31t-144 -91t-98.5 -139t-39.5 -171q-3 -121 53.5 -224.5t157 -165.5t221.5 -65q145 -4 265 80l157 -43l-42 160
q72 107 75 235q5 169 -105 298q-105 124 -265 151q-31 5 -62 6zM819 152q-164 70 -220 97q-47 -57 -108 -88.5t-125 -31.5q-60 0 -102.5 30t-48.5 70v-1q-2 6 -4 16.5t4.5 39.5t26.5 53q26 32 79 45q74 18 249 -40q4 8 12.5 23t14 24.5t11.5 23.5t10 27h-307v38h154v38h-173
v38h173v76h95v-76h173v-38h-173v-38h26q16 0 49.5 -0.5t56.5 0.5h22q-2 -13 -6.5 -27.5t-10.5 -26.5t-14 -26.5t-15 -25t-16 -24.5t-15 -22q24 -9 64 -25.5t51 -20.5q91 -33 112 -38q-8 -24 -19.5 -46.5t-25.5 -43.5z" />
    <glyph glyph-name="uniE63B" unicode="&#xe63b;" 
d="M990 392q0 21 -22.5 35.5t-55.5 14.5q-20 0 -38 -6l-59 168q-4 6 -8.5 16t-7 16t-8 10t-13.5 4h-93l-13 68q-2 10 -11 16t-19.5 9t-22.5 3h-212q-8 0 -16.5 -2t-16 -5t-13 -8.5t-7.5 -12.5l-13 -68h-93q-8 0 -14 -5t-9 -9.5t-8 -16.5t-6 -15l-59 -168q-4 1 -8.5 2.5
t-9.5 1.5l-10 2h-10q-33 0 -55.5 -14.5t-22.5 -35.5t22.5 -36t55.5 -15h1v-1v-2q-2 -41 13 -146t25 -154q5 -25 14.5 -33t27.5 -8h79q16 0 25 12t9 29v44q9 -1 17 -1.5t16 -1.5q195 -12 344 0q15 1 33 3v-44q0 -17 9 -29t25 -12h79q16 0 27 11.5t15 29.5q8 22 22 82.5
t24.5 129.5t4.5 92q28 3 47 17t19 33zM248 174q-22 0 -40 11t-29 30t-11 41q0 34 23.5 58t56.5 24t56 -24t23 -58q0 -17 -6 -32t-16.5 -26t-25.5 -17.5t-31 -6.5zM646 406q-20 -3 -55 -4t-70 -1t-66.5 1.5t-47.5 3.5q-19 2 -53 6t-59 7l-25 3q-17 0 -28 12t-11 29l19 80
q3 12 6 19t7.5 11.5t10.5 6.5t14 2h450q11 0 18 -4t11.5 -12t8.5 -23l19 -80q0 -17 -11 -29t-27 -12q-4 -2 -111 -16zM791 174q-33 0 -56 24t-23 58t23 58t56 24t56.5 -24t23.5 -58t-23.5 -58t-56.5 -24z" />
    <glyph glyph-name="uniE63C" unicode="&#xe63c;" 
d="M847 537q0 29 -21 49.5t-52 20.5h-59q-1 83 -61 141t-145 58t-145 -58t-61 -141h-53q-20 0 -37 -9t-26.5 -25.5t-9.5 -35.5l-49 -502q0 -29 21.5 -49.5t51.5 -20.5h622q30 0 51.5 20.5t21.5 49.5zM421 93l48 140h-73l208 199l-61 -152h85zM340 607q1 68 50 116t119 48
t119.5 -48t49.5 -116h-338z" />
    <glyph glyph-name="uniE63D" unicode="&#xe63d;" 
d="M424 87h-7q-28 0 -54 8.5t-38 17.5q-9 7 -17.5 14t-16.5 14q-67 95 -13 184q45 67 135 124q6 -6 9 -10q17 -16 48.5 -42t50.5 -42.5t34.5 -46t16.5 -63.5q3 -59 -41.5 -107t-106.5 -51zM657 770q-23 18 -44.5 29.5t-43.5 17.5t-45 6q-37 0 -80 -15q-26 -10 -57 -41
t-47 -73l-10 -10q-72 -53 -118 -114.5t-63.5 -119.5t-18.5 -116.5t14.5 -108.5t40.5 -94t55 -75t61 -49q79 -53 191 -53q87 0 169.5 35t138.5 102q21 25 38.5 56t31.5 69t19.5 80.5t3.5 88t-17.5 94.5t-42 97t-71.5 98t-105 96z" />
    <glyph glyph-name="uniE63E" unicode="&#xe63e;" 
d="M835 715q-44 45 -135 69.5t-187.5 24.5t-187 -24.5t-135 -69.5t-68.5 -138t-24 -191.5t24 -191t68 -138.5q72 -73 245 -90q170 -17 301 31q64 24 99 59q12 12 23 29q-11 2 -31 7t-35.5 8.5t-25.5 4.5q-13 2 -52.5 -4.5t-80.5 -15.5t-83.5 -17.5t-58.5 -9.5q-18 -1 -40 7
t-38 19t-37.5 25t-31.5 20q-16 9 -55.5 34t-70.5 45l-32 21v3q0 2 0.5 7.5t2.5 10t5.5 10.5t10 8.5t16.5 4t24 -2.5q18 -4 41.5 -13t44 -18.5t39 -18.5t28.5 -15l11 -6q3 -1 8 -2l20 -4q15 -3 29.5 -4.5t32.5 -1t32 4.5q34 11 61 22t39 23q18 19 10 30q-3 4 -9 3
q-33 -5 -87.5 -8.5t-88.5 2.5q-23 7 -34.5 30t-0.5 41q40 2 134 23q22 5 48.5 11.5t37.5 9.5t25.5 4.5t25 -0.5t22.5 -7l42 -22q43 -22 83.5 -37.5t82.5 -24.5q8 84 2.5 164t-29 151t-60.5 108zM625 477q0 -10 -4.5 -18t-13 -13t-17.5 -5h-304q-9 0 -17.5 5t-13 13t-4.5 18
v4q0 15 10.5 25.5t24.5 10.5h304q14 0 24.5 -10.5t10.5 -25.5v-4zM625 630q0 -7 -3 -14t-7.5 -11.5t-11 -7.5t-13.5 -3h-304q-14 0 -24.5 10.5t-10.5 25.5v4q0 15 10.5 25.5t24.5 10.5h304q14 0 24.5 -10.5t10.5 -25.5v-4z" />
    <glyph glyph-name="uniE63F" unicode="&#xe63f;" 
d="M212 578q-24 -145 -100 -298v-107q5 7 21.5 32t21 31.5t16 25.5t16.5 28.5t12 23t12 26.5v-340h108v388q48 -84 91 -141v116q-2 2 -12.5 21.5t-13 24.5t-12 23t-13.5 27t-11.5 26.5t-11.5 30t-9 29t-8 33.5h66v82h-66v108h-108l1 -108h-91v-82h91zM913 70q-44 15 -81 32
t-66.5 35.5t-52.5 38.5q44 45 77 99t57 129h-99q-8 -26 -18.5 -48.5t-26 -45.5t-25 -34.5t-29.5 -36.5q-66 73 -99 165h-91q24 -76 53.5 -129.5t71.5 -98.5q-66 -57 -199 -102v-74q161 52 264 119q91 -59 264 -116v67zM913 619v83h-198v66h-107v-66h-190v-83h495zM616 578
h-99q-11 -37 -37.5 -58.5t-77.5 -40.5v-50q29 3 54 8.5t46.5 14t39 20.5t32 28t25 36t18.5 45zM913 482q-49 16 -75 36t-40 60h-99q13 -48 40.5 -78.5t69.5 -47t104 -24.5v54z" />
    <glyph glyph-name="uniE640" unicode="&#xe640;" 
d="M959 360q0 84 -57 148.5t-134 64.5q-58 0 -123 -61q-25 -23 -104.5 -68t-120.5 -47q-68 -2 -126.5 18t-103 64.5t-63.5 109.5q-2 3 -4.5 10t-8 30t-6.5 47q0 17 -9 17t-15 -15q0 -1 -3.5 -8t-6 -14t-5.5 -20t-3 -28q-2 -30 -1 -61q4 -105 46.5 -201t109.5 -164.5
t158 -107t188 -33.5q97 4 183 53t152 128l5 5q52 66 52 133zM371 734q66 7 117.5 -35.5t57.5 -106.5q1 -17 -0.5 -32t-7.5 -30q-13 -15 -30 -27t-33 -19t-32.5 -12t-30.5 -7t-25 -3t-17 -0.5t-6 1.5q-39 4 -68 18.5t-43 29.5t-26 36q-1 6 -1 11q-6 64 36.5 116.5t108.5 59.5
z" />
    <glyph glyph-name="uniE641" unicode="&#xe641;" 
d="M599 110h-166v215h161q40 0 70.5 -6.5t50.5 -18.5q41 -25 41 -81q0 -109 -157 -109zM433 665h126q85 0 126 -20t41 -80q0 -28 -13 -51q-16 -31 -48 -42.5t-90 -11.5h-142v205zM179 681h79v-73h-79v73zM179 546h79v-76h-79v76zM179 420h79v-72h-79v72zM179 292h79v-76h-79
v76zM179 156h79v-72h-79v72zM770 395q115 52 115 165q0 19 -3 45t-8 39q-5 15 -13 28.5t-19 25.5q-21 24 -48 40q-11 6 -22.5 11t-24 8.5t-25.5 5.5q-40 7 -96 7h-368v-30h-79v24q-17 -5 -28 -16q-22 -21 -22 -71v-586q0 -49 22 -71q3 -3 7.5 -6t9.5 -5.5t11 -4.5v24h79v-30
h354q30 0 57 1.5t49 4.5q46 6 81 20q56 24 89 74.5t33 113.5q0 136 -151 183z" />
    <glyph glyph-name="uniE642" unicode="&#xe642;" 
d="M472 79q0 -9 -2.5 -17.5t-6.5 -15.5t-10 -12.5t-13.5 -10t-16 -6.5t-16.5 -2q-27 0 -46.5 18.5t-19.5 45.5q0 19 -14 33t-34 14q-14 0 -25 -6t-17.5 -17t-6.5 -24q0 -66 47.5 -113t115 -47t115.5 47t48 113v229h-98v-229zM542 735l-5 24q0 10 -7 16.5t-16.5 6.5
t-16.5 -6.5t-7 -16.5l-7 -24q-115 -5 -210 -60t-149 -145.5t-54 -196.5h24q11 30 45 49.5t78 19.5t78 -19.5t46 -49.5h48q11 30 45.5 49.5t77.5 19.5q30 0 55.5 -9t43.5 -25t25 -35h48q12 30 46 49.5t78 19.5t78 -19.5t45 -49.5h24q0 106 -54.5 196.5t-149 145t-209.5 60.5z
" />
    <glyph glyph-name="uniE643" unicode="&#xe643;" 
d="M700 456v-53h53q13 0 19 5.5t7 10t1 11t-1 11t-7.5 10t-18.5 5.5h-11h-11h-10h-9h-6h-5h-1zM762 348h-36v-106h-80v268h134q22 0 33 -3t22 -14q26 -25 26 -64q0 -18 -7.5 -31.5t-20.5 -26.5q-23 -23 -71 -23zM592 510v-268h-80v268h80zM378 242h-81l-107 268h80l67 -186
l68 186h80zM159 697q-38 0 -66 -21t-28 -59v-458q0 -33 24 -59.5t58 -26.5h730q22 0 41 12.5t30 32t11 41.5v458q0 25 -17.5 44t-40.5 27.5t-48 8.5h-694z" />
    <glyph glyph-name="uniE644" unicode="&#xe644;" 
d="M513 821q-61 0 -119 -16.5t-107.5 -45t-91 -70t-70 -90.5t-45 -107.5t-16.5 -119.5q0 -91 35.5 -174t96 -143t143.5 -95.5t174 -35.5q73 0 141.5 22.5t123.5 64t96.5 97t64 123.5t22.5 141q0 171 -114 298q-109 123 -271 146q-32 4 -63 5zM783 498l-310 -317q-2 -3 -4 -5
q-9 -9 -22 -9t-22 9l-154 157q-5 4 -7 10t-2 12t2 12t7 10q9 10 22 10t22 -10l131 -133l293 298q9 10 22 10t22 -10q6 -6 8 -14t0 -16t-8 -14z" />
    <glyph glyph-name="uniE645" unicode="&#xe645;" 
d="M513 821q-91 0 -174 -35.5t-143.5 -95.5t-96 -143t-35.5 -174.5t35.5 -174.5t96 -143t143.5 -95.5t174 -35.5q73 0 141.5 22.5t123.5 64t96.5 97t64 123.5t22.5 141q0 171 -114 298q-109 123 -271 146q-32 4 -63 5zM691 239q9 -9 9 -22t-9 -23q-6 -6 -14.5 -8t-16.5 0
t-14 8l-133 134l-133 -134q-2 -2 -4.5 -3.5t-5.5 -2.5l-4 -2q-3 -1 -6 -1h-6q-2 0 -4 1l-6 2q-2 1 -4.5 2.5t-4.5 3.5q-4 5 -6.5 11t-2.5 12t2.5 11.5t6.5 10.5l133 133l-133 133q-6 6 -8 14.5t0 16.5t8 14q2 2 4 3.5t4 2.5t5 2h4q3 1 5.5 1t5 -0.5t4.5 -1t4.5 -1.5
t4.5 -2.5t4 -3.5l133 -133l133 133q9 9 22 9t23 -9q4 -5 6.5 -10.5t2.5 -11.5t-2.5 -12t-6.5 -11l-134 -133z" />
    <glyph glyph-name="uniE646" unicode="&#xe646;" 
d="M513 820q-73 0 -141.5 -23t-123.5 -64t-96 -96t-63.5 -123.5t-22.5 -141.5q0 -91 35 -173.5t95 -142.5t143 -95.5t174 -35.5t173.5 35.5t142.5 95.5t95.5 142.5t35.5 173.5t-35.5 174t-95.5 143t-142.5 95.5t-173.5 35.5zM475 583q0 14 10.5 25t25.5 11q7 0 13.5 -3
t11.5 -8t7.5 -11.5t2.5 -13.5v-273q0 -6 -1.5 -11.5t-5 -10t-8 -8t-10 -5t-10.5 -1.5q-10 0 -18 4.5t-13 13t-5 18.5v273zM511 125q-21 0 -36 15t-15 36.5t15 36.5t36 15t35.5 -15t14.5 -36q0 -7 -1.5 -14t-5 -12.5t-8 -10.5t-10 -8t-12 -5t-13.5 -2z" />
    <glyph glyph-name="uniE647" unicode="&#xe647;" 
d="M513 832q-73 0 -141.5 -23t-123.5 -64t-96 -96t-63.5 -123.5t-22.5 -141.5q0 -91 35 -173.5t95 -142.5t143 -95.5t174 -35.5t173.5 35.5t142.5 95.5t95.5 142.5t35.5 173.5q0 170 -113 297q-109 123 -271 146q-32 4 -63 5zM513.5 635q23.5 0 40 -16.5t16.5 -40t-16.5 -40
t-39.5 -16.5q-12 0 -22 4.5t-18 12t-12.5 18t-4.5 21.5q0 24 16.5 40.5t40 16.5zM563 142h-40q-15 0 -28.5 11t-13.5 23v229h-14q-16 0 -27 11t-11 26q0 10 5 19t14 14t19 5h47q7 -1 13 -2.5t10.5 -5t7 -8t2.5 -9.5v-238h16q15 0 26 -11t11 -26.5t-11 -26.5t-26 -11z" />
    <glyph glyph-name="uniE648" unicode="&#xe648;" 
d="M513 833q-91 0 -174 -35.5t-143.5 -95.5t-96 -143t-35.5 -174.5t35.5 -174.5t96 -143t143.5 -95.5t174 -35.5t174 35.5t143 95.5t95.5 143t35.5 174.5t-35.5 174.5t-95.5 143t-143 95.5t-174 35.5zM511 161q-19 0 -32.5 14t-13.5 33.5t13.5 33.5t32.5 14q5 0 9.5 -1
t8.5 -3t8 -4.5t7 -5.5t5.5 -7t4 -8t2.5 -9t1 -10q0 -19 -13.5 -33t-32.5 -14zM640 460q-9 -19 -23 -32q-6 -7 -18 -18t-29 -27q-9 -9 -15 -16l-8 -12q-3 -6 -4.5 -11.5t-4.5 -19.5q-6 -30 -33 -30q-8 0 -14 2.5t-11 7.5q-9 10 -9 29q0 24 7 42t19 31q6 7 14 14.5t18 17.5
q6 5 11 9.5t8 8.5l7 6q8 8 13 18t5 22t-4 21.5t-12 17.5q-6 5 -12.5 8.5t-14 5.5t-16.5 2q-30 0 -45 -16q-4 -6 -8.5 -13t-8.5 -15.5t-7 -18.5q-9 -33 -36 -33q-15 0 -26 12q-5 5 -8 11.5t-3 12.5q0 28 17 56t49.5 46t75.5 18q41 0 71.5 -15t47.5 -41.5t17 -57.5
q0 -13 -2.5 -23.5t-7.5 -19.5z" />
    <glyph glyph-name="uniE649" unicode="&#xe649;" 
d="M511.5 833q-91.5 0 -174.5 -35.5t-143 -95.5t-95.5 -143t-35.5 -174.5t35.5 -174.5t95.5 -143t143 -95.5t174.5 -35.5t174.5 35.5t143 95.5t95.5 143t35.5 174.5t-35.5 174.5t-95.5 143t-143 95.5t-174.5 35.5zM673 154q-11 -11 -27 -11t-26 11l-133 133q-9 10 -9 40v5
q0 21 -5 265q0 16 11 27t26.5 11t26.5 -11t11 -27v-265q0 -1 125 -125q11 -11 11 -26.5t-11 -26.5z" />
    <glyph glyph-name="uniE64A" unicode="&#xe64a;" 
d="M512 517q-40 0 -74.5 -20t-54.5 -54.5t-20 -74.5q0 -62 43.5 -105.5t105.5 -43.5q41 0 75 19.5t54 54t20 75.5q0 61 -43.5 105t-105.5 44zM874 591h-108q-10 0 -20.5 14.5t-14.5 28.5l-32 69q-3 8 -9 16.5t-14 14.5t-15 6h-298q-17 0 -33 -27q-3 -5 -4 -10l-28 -72
q-4 -13 -14.5 -26.5t-20.5 -13.5h-108q-90 0 -90 -64v-405q0 -18 7 -34.5t19 -29t28.5 -19.5t35.5 -7h719q37 0 61.5 26.5t24.5 63.5v405q0 35 -22.5 49.5t-63.5 14.5zM512.5 144q-92.5 0 -158.5 65.5t-66 158t66 158t158 65.5q46 0 87 -17.5t71 -47.5t48 -71.5t18 -86.5
q0 -93 -65.5 -158.5t-158 -65.5z" />
    <glyph glyph-name="uniE64B" unicode="&#xe64b;" 
d="M814 807h-599q-36 0 -61.5 -25.5t-25.5 -61.5v-114h17q15 0 25 -11t10 -25.5t-10 -25.5t-25 -11h-17v-109h17q15 0 25 -11t10 -26q0 -9 -4.5 -17.5t-12.5 -13.5t-18 -5h-17v-110h17q15 0 25 -11t10 -25.5t-10 -25.5t-25 -11h-17v-113q0 -18 7 -34t18.5 -28t28 -18.5
t33.5 -6.5h599q36 0 58 25t22 62v665q0 18 -5.5 34t-16 27.5t-25.5 18.5t-33 7zM697 112q-35 -20 -109.5 33.5t-137.5 162.5q-32 56 -50.5 111t-22 95.5t3.5 68.5t23 38q4 2 12.5 7.5t13.5 8t13.5 6.5t14 5t14 2t14.5 -2t13 -8t13 -14.5t12 -22.5q29 -65 1 -91
q-7 -6 -34 -22q-32 -19 36 -137.5t100 -99.5q3 1 7 3q16 10 25 13.5t23 3.5t28 -12t32 -36q9 -13 13.5 -24.5t6 -20t-2 -17t-7 -13.5t-12.5 -11.5t-13.5 -9.5t-15.5 -9t-14 -8z" />
    <glyph glyph-name="uniE64C" unicode="&#xe64c;" 
d="M512 564q-49 0 -90.5 -24t-65.5 -65.5t-24 -89.5q0 -74 52.5 -126.5t127.5 -52.5q36 0 69 14t57 38t38.5 57t14.5 70q0 85 -66 139q-50 40 -113 40zM512 250q-56 0 -95.5 39.5t-39.5 95t39.5 95t95.5 39.5q22 0 42.5 -6.5t37 -19t28.5 -29t19 -37t7 -42.5t-7 -42.5
t-19 -37t-28.5 -29t-37 -19.5t-42.5 -7zM960 295v179l-130 22q-6 19 -15 35l77 107l-127 127l-107 -77q-16 9 -35 15l-22 130h-179l-22 -130q-8 -2 -16.5 -6t-18.5 -9l-107 76l-126 -126l76 -107q-2 -4 -4 -8.5t-4 -8.5t-3.5 -9t-3.5 -9l-130 -22v-179l130 -21q2 -7 4.5 -13
t5.5 -12l6 -12l-77 -106l127 -127l107 76q20 -9 34 -13l22 -130h179l22 130q20 6 36 15l107 -77l127 127l-77 107q10 21 14 35zM787 286q-4 -11 -11 -27q-12 -24 4 -46l54 -77l-73 -73l-76 55q-12 8 -26 9q-11 0 -21 -6l-14 -6q-7 -3 -15 -6q-26 -8 -30 -35l-16 -93h-103
l-15 93q-5 28 -32 36q-11 3 -28 11q-9 4 -19 4q-14 0 -26 -8l-76 -55l-73 73l54 76q16 23 3 47q-7 12 -12 29q-8 26 -35 31l-93 15v103l93 16q12 2 22 10.5t13 20.5q2 7 5 14l6 14q4 7 5 15.5t-1 16.5t-7 14l-54 76l73 72l76 -53q3 -3 7.5 -5t9 -3t9.5 -1q10 0 20 5
q17 9 28 12q27 8 32 36l15 92h103l16 -92q2 -13 10.5 -22.5t20.5 -13.5q7 -2 13.5 -5t12.5 -6q5 -3 10.5 -4.5t11.5 -1.5q7 0 14 2.5t12 6.5l77 55l73 -73l-55 -76q-17 -24 -3 -49q7 -11 11 -26q8 -27 36 -31l92 -16v-103l-92 -15q-28 -5 -36 -32z" />
    <glyph glyph-name="uniE64D" unicode="&#xe64d;" 
d="M622 387q55 31 88 86.5t33 121.5q0 100 -70 170t-169 70q-49 0 -93.5 -19t-76.5 -51t-51 -76.5t-19 -93.5q0 -13 1.5 -26.5t4.5 -26.5t7 -25t9.5 -24t12.5 -23t14.5 -21t16.5 -19t18.5 -17.5t20 -15.5t22.5 -13q-143 -39 -235 -156.5t-92 -266.5q0 -10 1 -27l45 3
q-1 5 -1 8v7v9q0 102 49 190.5t134.5 143t187.5 62.5q12 -1 24 -1h6h6q2 0 5 0.5t6 0.5h6q105 -5 192.5 -59t138.5 -143.5t51 -193.5q0 -8 -1 -24l45 -1q1 16 1 25q0 152 -95.5 270.5t-242.5 155.5zM503.5 404q-79.5 0 -135.5 56t-56 135q0 52 25.5 96.5t70 70t96.5 25.5
q79 0 135 -56t56 -135.5t-56 -135.5t-135.5 -56z" />
    <glyph glyph-name="uniE64E" unicode="&#xe64e;" 
d="M728 201q97 108 97 253q0 103 -51 190t-138 138t-190 51q-77 0 -147 -30t-121 -81t-81 -121t-30 -147q0 -103 51 -190t138 -138t190 -51q142 0 248 93l231 -230l33 33zM446 122q-90 0 -166.5 44.5t-121 121t-44.5 166.5t44.5 166.5t121 121t166.5 44.5q54 0 104.5 -17
t91.5 -47.5t71.5 -71.5t47.5 -91.5t17 -104.5q0 -90 -44.5 -166.5t-121 -121t-166.5 -44.5z" />
    <glyph glyph-name="uniE64F" unicode="&#xe64f;" 
d="M65 386v-23h178v23v23h-178v-23zM65 748h178v-46h-178v46zM332 748h625v-46h-625v46zM65 70h178v-46h-178v46zM332 386v-23h625v23v23h-625v-23zM325 70h632v-46h-632v46z" />
    <glyph glyph-name="uniE650" unicode="&#xe650;" 
d="M961 748l-437 -436l-35 35l437 437zM348 136l106 105l-35 35l-106 -105zM910 -14h-796v797h597v49h-647v-49v-846h25h846h25v597h-50v-548z" />
    <glyph glyph-name="uniE651" unicode="&#xe651;" 
d="M660 533h50v-397h-50v397zM536 136v397h-25h-24v-397h24h25zM313 533h49v-397h-49v397zM710 682v100q0 20 -14.5 34.5t-35.5 14.5h-298q-10 0 -19 -4t-15.5 -10.5t-10.5 -15.5t-4 -19v-100h-249v-49h100v-646q0 -32 29 -46q10 -4 20 -4h596q21 0 35.5 14.5t14.5 35.5v646
h100v49h-249zM362 782h298v-100h-298v100zM809 -13h-596v646h596v-646z" />
    <glyph glyph-name="uniE652" unicode="&#xe652;" 
d="M910 -13h-795v795h397v49h-422h-25v-894h50h820h25v447h-50v-397zM711 831v-49h164l-611 -611l35 -35l611 611v-164h50v224v24h-249z" />
    <glyph glyph-name="uniE653" unicode="&#xe653;" 
d="M512 423q22 0 43 8.5t36 22.5t23.5 34t8.5 41q0 29 -15 53.5t-40.5 39t-55.5 14.5q-47 0 -79.5 -31.5t-32.5 -75.5q0 -29 15 -53.5t40.5 -38.5t56.5 -14zM511.5 593q27.5 0 47.5 -18.5t20 -45t-20 -45.5t-47.5 -19t-47 19t-19.5 45.5t19.5 45t47 18.5zM824 559
q0 -2 -0.5 -7t-0.5 -7.5t-0.5 -7t-0.5 -8.5t-0.5 -9t-1.5 -10l94 29v-466l-268 -75l-313 87v0v0l-224 -72v465l93 22l-3 40v2l-135 -32v-554l45 14l224 72l313 -86l313 86v554zM394 227q3 -3 5 -6q43 -51 84 -84l29 -22l28 23q41 31 84 83q3 3 5 7q128 165 148 281l2 18
q1 9 1 13v5q1 110 -80 188q-78 75 -188 75t-188 -75q-82 -78 -81 -189q0 -14 3 -35q21 -117 148 -282zM511.5 766q92.5 0 158.5 -65t65 -156l-2 -29q-7 -41 -31.5 -91.5t-51 -91t-58.5 -82.5l-2 -2q-11 -13 -23 -26t-21.5 -22t-17.5 -16.5t-12 -10.5l-4 -4q-40 32 -79 79
l-2 2q-122 157 -140 264l-3 29q-1 92 65 157t158.5 65z" />
    <glyph glyph-name="uniE654" unicode="&#xe654;" 
d="M538 409v423h-50v-423h-422v-49h422v-423h50v423h422v49h-422z" />
    <glyph glyph-name="uniE655" unicode="&#xe655;" 
d="M543 179.5q0 -12.5 -8.5 -21t-21 -8.5t-21.5 8.5t-9 21t9 21t21.5 8.5t21 -8.5t8.5 -21zM615 600q9 -8 16.5 -18t12 -21t7 -24t2.5 -28q0 -17 -4 -32.5t-11 -29.5q-16 -29 -52 -59q-11 -9 -19.5 -17.5t-14.5 -16.5t-10 -16q-11 -26 -11 -72q0 -9 -6 -15q-7 -5 -14 -5
q-9 0 -15 5q-6 6 -6 15q0 24 3 43t10 35q12 31 44 57q38 32 52 58q13 24 13 53q-1 34 -21 55q-8 9 -19 14.5t-24 8.5t-29 3q-57 0 -82 -38q-4 -7 -7.5 -14.5t-5.5 -15.5t-3 -16.5t-1 -18t-7 -15.5q-3 -3 -6.5 -4.5t-7.5 -1.5q-4 -1 -7.5 0.5t-6.5 3.5q-3 3 -4.5 7.5
t-1.5 9.5q0 65 44 104q39 36 96 36h7q54 0 89 -30zM513 787q109 0 202 -53.5t146.5 -146.5t53.5 -202q0 -55 -14.5 -107t-40 -96t-63 -81.5t-81.5 -63.5t-96 -40.5t-107 -14.5q-109 0 -202 54t-147 147t-54 202q0 82 32 156.5t86 128.5t128.5 85.5t156.5 31.5zM513 832
q-91 0 -174 -35.5t-142.5 -95t-95 -142.5t-35.5 -174q0 -73 22.5 -141t64 -123t96.5 -96.5t123 -64t141 -22.5q91 0 174 35.5t142.5 95t95 142.5t35.5 174t-35.5 174t-95 142.5t-142.5 95t-174 35.5z" />
    <glyph glyph-name="uniE656" unicode="&#xe656;" 
d="M140 460q-31 0 -53 -21.5t-22 -52.5t22 -53t53 -22q20 0 37 10t27 27t10 37.5t-10 37.5t-27 27t-37 10zM512 460q-31 0 -52.5 -21.5t-21.5 -52.5t21.5 -53t52.5 -22t53 22t22 53t-22 52.5t-53 21.5zM885 460q-31 0 -53 -21.5t-22 -52.5t22 -53t53 -22t52.5 22t21.5 53
t-21.5 52.5t-52.5 21.5z" />
    <glyph glyph-name="uniE657" unicode="&#xe657;" 
d="M954 341h-884q-3 0 -6.5 1t-6.5 2t-6 3t-5 5l-4 4q-2 3 -3.5 6t-2 6.5t-0.5 7.5q0 7 2.5 13t7 11t11 7.5t13.5 2.5h884q15 0 25 -10t10 -24.5t-10 -24.5t-25 -10zM909 543q-15 0 -25 10t-10 25v149h-149q-14 0 -24.5 10t-10.5 24q0 10 5 18t12.5 12.5t17.5 4.5h184
q14 0 24 -10t10 -25v-183q0 -6 -1.5 -11.5t-5 -9.5t-7.5 -7t-9.5 -5t-10.5 -2zM300 727h-149v-149q0 -10 -5 -18t-13 -12.5t-17 -4.5t-17 4.5t-12.5 12.5t-4.5 18v183q0 10 4.5 18t12.5 12.5t17 4.5h184q7 0 13.5 -3t11 -7.5t7 -11t2.5 -13.5q0 -14 -10 -24t-24 -10z
M116 203q14 0 24.5 -10t10.5 -24v-150h149q9 0 17 -4.5t12.5 -12.5t4.5 -17q0 -14 -10 -24t-24 -10h-184q-14 0 -24 10t-10 24v184q0 14 10 24t24 10zM725 19h149v150q0 14 10 24t24.5 10t24.5 -10t10 -24v-184q0 -14 -10 -24t-24 -10h-184q-14 0 -24.5 10t-10.5 24t10.5 24
t24.5 10z" />
    <glyph glyph-name="uniE658" unicode="&#xe658;" 
d="M229 535h24q2 0 3.5 0.5t3 1.5t3 2.5t2 3.5t0.5 4v263q0 3 -1 5t-2.5 3.5t-4 2.5t-4.5 1h-24q-5 0 -8.5 -3.5t-3.5 -8.5v-263q0 -3 1 -5t2.5 -3.5t3.5 -2.5t5 -1zM361 535h72q12 0 12 12v263q0 12 -12 12h-72q-5 0 -8.5 -3.5t-3.5 -8.5v-263q0 -5 3.5 -8.5t8.5 -3.5z
M768 535h24q5 0 8.5 3.5t3.5 8.5v263q0 5 -3.5 8.5t-8.5 3.5h-24q-2 0 -3.5 -0.5t-3 -1.5t-3 -2.5t-2 -3.5t-0.5 -4v-263q0 -5 3.5 -8.5t8.5 -3.5zM672 391v-216q0 -6 2 -11.5t5.5 -10t7.5 -7.5t9.5 -5t11.5 -2q10 0 18.5 5t13 13t4.5 18v216q0 6 -1.5 11.5t-5 10t-8 7.5
t-10 5t-11.5 2q-10 0 -18 -5t-13 -13t-5 -18zM876 535h60q2 0 4 0.5t3 1.5l3 3q1 1 1.5 3t0.5 4v263q0 5 -3.5 8.5t-8.5 3.5h-60q-5 0 -8.5 -3.5t-3.5 -8.5v-263q0 -5 3.5 -8.5t8.5 -3.5zM696 547v263q0 5 -3.5 8.5t-8.5 3.5h-72q-2 0 -3.5 -0.5t-3 -1.5t-2.5 -2.5t-2 -3.5
t-1 -4v-263q0 -5 3.5 -8.5t8.5 -3.5h72q5 0 8.5 3.5t3.5 8.5zM519 427h-437q-8 0 -14.5 -6.5t-6.5 -15.5v-436q0 -5 1.5 -8.5t4.5 -6.5t7 -5t8 -2h437q9 0 15 6.5t6 15.5v436q0 3 -0.5 5.5t-1.5 4.5t-2.5 4t-3 3.5t-4 2.5t-4.5 1.5t-5 0.5zM469 19h-336v336h336v-336z
M924 235q-15 0 -25.5 -10.5t-10.5 -25.5v-180h-180q-15 0 -25.5 -10.5t-10.5 -25t10.5 -25.5t25.5 -11h216q15 0 25.5 11t10.5 25v216q0 15 -10.5 25.5t-25.5 10.5zM85 535h60q12 0 12 12v263q0 4 -1.5 6.5t-4.5 4t-6 1.5h-60q-5 0 -8.5 -3.5t-3.5 -8.5v-263q0 -5 3.5 -8.5
t8.5 -3.5zM924 427q-10 0 -18 -5t-13 -13t-5 -18v-48q0 -15 10.5 -25.5t25.5 -10.5q10 0 18 5t13 13t5 18v48q0 15 -10.5 25.5t-25.5 10.5zM253 115h96q4 0 7.5 1.5t6.5 3.5t5 5t3.5 6.5t1.5 7.5v96q0 10 -7 17t-17 7h-96q-10 0 -17 -7t-7 -17v-96q0 -10 7 -17t17 -7z
M522 535q4 0 7.5 1t6 2.5t3.5 3.5t1 5v263q0 5 -5 8.5t-12.5 3.5t-12.5 -3.5t-5 -8.5v-263q0 -12 17 -12z" />
    <glyph glyph-name="uniE659" unicode="&#xe659;" 
d="M922 -2h-840h-10q-5 0 -17 3t-17 9t0 19.5t25 32.5q28 16 65 29q-9 22 -9 46q0 44 28.5 75t69.5 31q27 0 49.5 -14.5t35.5 -38.5t13 -53v-2v-2q11 1 19 2v550q0 27 18 45.5t45 18.5h377q27 0 44.5 -18.5t17.5 -45.5v-580q67 -19 111 -44q30 -20 38.5 -34t-1 -19.5t-23 -8
t-26.5 -2.5zM545 604q0 13 -9.5 22.5t-23.5 9.5h-64q-4 0 -7 -0.5t-6 -2t-5.5 -3t-5 -4t-4 -5t-2.5 -5t-2 -6t-1 -6.5v-89q0 -5 2.5 -10.5t6.5 -9t9.5 -6.5t11 -5t11.5 -2h56q6 0 11 2t8.5 5t6.5 7t5 8.5t2 10.5v89zM545 369q0 14 -9.5 23.5t-23.5 9.5h-64q-7 0 -13 -2.5
t-10.5 -7t-7 -10.5t-2.5 -13v-89q0 -4 2 -8.5t5 -8t7 -6.5t8.5 -5t9 -3t9.5 -1h56q7 0 13 2.5t10.5 7t7 10.5t2.5 12v89zM755 604q0 13 -9.5 22.5t-23.5 9.5h-64q-14 0 -23.5 -9.5t-9.5 -22.5v-89q0 -4 1.5 -7.5t4 -7t5.5 -6t6.5 -5t7.5 -4t8 -2.5t8 -1h56q14 0 23.5 9.5
t9.5 23.5v89zM755 369q0 14 -9.5 23.5t-23.5 9.5h-64q-14 0 -23.5 -9.5t-9.5 -23.5v-89q0 -4 2 -8.5t5 -8t7 -6.5t8.5 -5t9 -3t9.5 -1h56q14 0 23.5 9.5t9.5 22.5v89z" />
    <glyph glyph-name="uniE65A" unicode="&#xe65a;" 
d="M941 513v-157l33 -33l-69 -72l-70 70l48 43v125q-289 -120 -313 -131q-17 -7 -32 -11t-29.5 -4t-29 3t-31.5 9q-4 1 -35 12.5t-56.5 21.5t-67 26t-74.5 29t-69 28.5t-61 27.5q-54 26 -54.5 44t55.5 40q52 20 181 68t170 63q32 13 46.5 17.5t35.5 3.5t44 -12
q41 -17 182.5 -72t191.5 -76q24 -10 35 -18.5t8.5 -15t-6.5 -10.5t-17 -10t-16 -9zM579 296q25 10 88.5 39.5t99.5 45.5v-248q-1 -2 -3.5 -4t-10 -9t-16.5 -13.5t-23.5 -15.5t-29.5 -16.5t-35 -15.5t-41 -13.5t-46.5 -9t-52.5 -3.5q-36 0 -70.5 5.5t-60.5 14.5t-49.5 19.5
t-40 21t-28.5 19.5t-18 15l-5 5v231q20 -8 44.5 -17t44.5 -15l52 -18q33 -11 53 -18q38 -13 76 -14t72 14z" />
    <glyph glyph-name="uniE65B" unicode="&#xe65b;" 
d="M850 120q-16 -45 -33 -66t-49 -21h-648q-35 0 -60 25.5t-25 61.5l141 506q7 29 17 47.5t26 28.5t39 10h648q35 0 60 -25.5t25 -60.5zM323 547q-6 -5 -8 -9q-2 -5 -3 -7t-3 -9v-1l-3 -9q-1 -9 -1.5 -10.5t-2.5 -13.5v-1q-1 -9 -1 -18q0 -3 0.5 -7t0.5 -7v-3q1 -11 4 -23
q3 -13 6 -21q4 -10 8 -16l1 -1q2 -3 3 -5.5t3.5 -6t4.5 -6.5q6 -6 10 -10.5t8 -6.5q4 -3 9.5 -6.5t9.5 -4.5q3 -2 6 -2.5t4 -0.5h1q0 1 -1 1q-5 3 -7 5q-2 4 -5 9t-5 10q-2 8 -4 18q-1 2 -2 12q-1 5 -2 8v5q0 3 -0.5 9t-1.5 11v30q2 25 6 39v1q4 19 9 26q7 11 9 11q1 0 1 1
t-5 5.5t-9 6.5q-11 4 -20 4q-5 0 -11 -2t-9 -5zM723 496q-4 27 -18.5 45.5t-31 25.5t-33.5 7q-35 0 -59 -25q-14 -13 -21 -31.5t-7 -40.5v-1v0q1 0 4 4q33 52 61 58q2 1 4 1h5q10 0 19.5 -5.5t15.5 -14.5q22 -38 -11 -102q-32 -61 -59 -91q-3 -3 -6 -6.5t-5 -6t-5 -6.5
q-9 -9 -13 -14t-11.5 -13t-12 -13t-10 -9.5t-9.5 -6.5q-3 -2 -6 -5q1 2 1 4v6v4v6v5q1 41 1 60q0 48 -4 77q-1 12 -5 30q0 2 -0.5 3.5t-0.5 2.5v3q-7 32 -27 63q-13 19 -36 36q-7 5 -16.5 9.5t-20 8t-19.5 5.5q-7 1 -14 1q-13 0 -26 -4q-7 -2 -16 -8q-3 -2 -4 -3l1 -1
q2 1 4 3q9 4 21 1q5 -2 15 -7q23 -17 32 -37q5 -12 11 -30q7 -21 10 -60q0 -5 0.5 -12t1 -11.5t0.5 -13.5q4 -67 9 -94q2 -7 3.5 -14t3.5 -13.5t4 -13.5q17 -53 43 -83q9 -10 18.5 -18t12.5 -8v0h1v0q3 2 9.5 6.5t21.5 15.5t26 20q73 61 117.5 146.5t30.5 164.5z" />
    <glyph glyph-name="uniE65C" unicode="&#xe65c;" 
d="M792 83h-557q-31 0 -55.5 15.5t-37.5 42t-13 57.5v485q0 48 29.5 81.5t76.5 33.5h557q31 0 55.5 -15.5t37 -42t12.5 -57.5v-485q0 -48 -29 -81.5t-76 -33.5zM692.5 157q23.5 0 40.5 16.5t17 40.5q0 16 -8 29t-21 20.5t-28 7.5q-8 0 -15.5 -2t-14 -5.5t-11.5 -9t-9 -11.5
t-6 -13.5t-2 -15.5q0 -24 17 -40.5t40.5 -16.5zM328.5 157q23.5 0 40 16.5t16.5 40.5t-16.5 40.5t-40 16.5t-40.5 -16.5t-17 -40.5t17 -40.5t40.5 -16.5zM792 630q0 9 -4 18.5t-11.5 16.5t-15.5 7h-495q-6 0 -12 -4t-10.5 -10t-6.5 -13.5t-2 -14.5v-232q0 -14 9 -28t22 -14
h495q12 0 21.5 14t9.5 28v232zM618 415h-1q-5 -6 -13 -6q-7 0 -12 5.5t-5 12.5v3q0 2 0.5 3.5t1.5 2.5l-1 1q1 0 3 2l1 1l2 2q6 5 10 11t7 13t5 14.5t2 15.5q0 39 -33 61l1 1q-2 1 -3.5 3.5t-2.5 5t-1 5.5q0 8 6 13.5t14 5.5q12 0 17 -11l2 2q18 -16 27.5 -37.5t9.5 -46
t-10 -46t-27 -37.5zM532 418q-2 0 -4 0.5t-3.5 1t-3.5 1.5t-3 2l-1 -1l-108 96v-76q0 -7 -3.5 -12.5t-9 -8.5t-11.5 -3q-4 0 -7.5 1t-6.5 3.5t-5 5.5t-3.5 6.5t-1.5 7.5v120q0 10 7 17t17 7q4 0 7.5 -1.5t6.5 -3.5t5 -5l2 -1l102 -83v70q0 5 2 9.5t5 7.5t7.5 5t9.5 2
q10 0 17 -7t7 -17v-120q0 -7 -3.5 -12.5t-9 -8.5t-11.5 -3zM340 30q0 -19 -8.5 -34.5t-23.5 -24.5t-34 -9q-29 0 -50 20.5t-21 50.5v29h137v-32zM813 30q0 -30 -18 -49t-47 -19q-30 0 -51 20.5t-21 50.5v29h137v-32z" />
    <glyph glyph-name="uniE65D" unicode="&#xe65d;" 
d="M513 832q-73 0 -141.5 -22.5t-123.5 -64t-96.5 -97t-64 -123.5t-22.5 -141q0 -91 35.5 -174t95.5 -143t143 -95.5t173.5 -35.5t173.5 35.5t143 95.5t95.5 143t35.5 174t-35.5 174t-95.5 143t-143 95.5t-173 35.5zM513 -10q-80 0 -153 31.5t-126 84t-84 125.5t-31 153
q0 107 52.5 197.5t143.5 143.5t197.5 53t197.5 -53t143.5 -143.5t52.5 -197.5q0 -154 -104 -267q-103 -111 -252 -125q-19 -2 -37 -2zM632 387q13 0 21.5 8.5t8.5 21.5q0 5 -1.5 9.5t-4 8t-6.5 6.5t-8.5 4.5t-9.5 1.5h-64l61 82q9 9 9 21.5t-9 21.5q-5 4 -10.5 6t-11 2
t-11 -2t-10.5 -6l-75 -97l-74 97l-6 4q-3 2 -6 3t-6.5 1.5t-6.5 0t-6 -1.5t-6 -3l-6 -4q-9 -9 -9 -21.5t9 -21.5l61 -82h-64q-13 0 -21.5 -9t-8.5 -21.5t8.5 -21t21.5 -8.5h90v-61h-90q-8 0 -15 -4t-11 -11t-4 -15q0 -12 8.5 -21t21.5 -9h90v-80q0 -13 9 -21.5t21.5 -8.5
t21.5 8.5t9 21.5v80h90q13 0 21.5 9t8.5 21.5t-8.5 21t-21.5 8.5h-90v61h90z" />
    <glyph glyph-name="uniE65E" unicode="&#xe65e;" 
d="M960 543q0 10 -7.5 17.5t-17.5 7.5h-99q-4 6 -8.5 13t-9.5 13l-8 14q-5 6 -10 12.5t-10 12.5q-30 37 -63.5 66t-69 48.5t-73 29.5t-74.5 10q-74 0 -146.5 -40t-132.5 -114q-13 -16 -24.5 -32t-21.5 -33h-97q-4 0 -8 -1.5t-7 -3.5t-5 -5t-3.5 -7t-1.5 -8q0 -52 2.5 -92
t9.5 -86.5t21.5 -83t37 -71.5t57 -62.5t80.5 -46.5l-4 -92q0 -10 7 -18q2 -2 4 -3l4 -2q2 -1 4.5 -1.5t5.5 -0.5h425q10 0 17.5 7.5t6.5 17.5l-3 86q42 16 75.5 39t56.5 49t39.5 60.5t26 67t15 74.5t7.5 77.5t2 80.5zM510 738q18 0 35 -2.5t33.5 -8t33 -13t32 -17
t30.5 -20.5t28.5 -23.5t26.5 -26.5t25 -29t23 -30h-533q33 48 74 85.5t91.5 61t100.5 23.5zM691 33h-374l2 51q40 -11 88 -17t104 -6q26 0 50.5 1.5t46.5 4t42.5 6t39.5 7.5zM511 110q-237 0 -325 111q-69 88 -73 287v11h797q0 -52 -4.5 -94t-13.5 -82t-24 -70.5
t-36.5 -57.5t-51.5 -45.5t-69 -32.5t-89 -20.5t-111 -6.5zM559 647l45 -23q2 -1 4.5 -1.5t5.5 -0.5q4 0 7.5 1.5t7 4t5.5 6.5q1 4 1.5 7.5t0 6.5t-2 6.5t-4 6t-5.5 3.5l-45 23q-2 1 -4.5 1.5t-5 0.5t-5 -0.5t-5 -1.5t-4.5 -2.5t-3.5 -3.5t-2.5 -4q-2 -4 -2.5 -8.5t1 -8.5
t4.5 -7.5t7 -5.5zM409 629q7 0 12 4l36 24q8 5 9.5 14t-3.5 17q-4 5 -9 7.5t-11 2t-11 -3.5l-36 -24q-7 -5 -9 -14t3 -17q4 -5 8.5 -7.5t10.5 -2.5z" />
    <glyph glyph-name="uniE65F" unicode="&#xe65f;" 
d="M855 642h-139v62q0 35 -25.5 61t-59.5 26h-236q-10 0 -19.5 -2.5t-18 -7t-16 -10.5t-13.5 -13.5t-10.5 -16t-7 -18.5t-2.5 -19v-62h-138q-7 0 -12.5 -3.5t-9 -9t-3.5 -12.5v-538q0 -53 35.5 -90t84.5 -37h495q50 0 85 37t35 90v538q0 10 -7.5 17.5t-17.5 7.5zM360 704
q0 13 11 24.5t24 11.5h236q13 0 23.5 -11.5t10.5 -24.5v-62h-305v62zM308 591v-82q-12 -12 -12 -29q0 -16 12 -27.5t28 -11.5q11 0 20 5t14.5 14.5t5.5 19.5q0 5 -1.5 10t-3.5 9t-5 7.5t-6 5.5v79h305v-79q-16 -12 -16 -32q0 -10 5.5 -19.5t14.5 -14.5t20 -5q16 0 28 11.5
t12 27.5q0 17 -13 29v82h113v-458h-633v458h112zM760 3h-495q-28 0 -48.5 22t-20.5 54v10h633v-10q0 -32 -20 -54t-49 -22z" />
    <glyph glyph-name="uniE660" unicode="&#xe660;" 
d="M805 574h-184q-9 0 -16 -6h-78v31q0 9 -6.5 15.5t-16.5 6.5q-30 0 -51.5 21.5t-21.5 52t21.5 52t52 21.5t52 -21.5t21.5 -52.5q0 -6 3 -11t8 -8t11 -3q9 0 15.5 6.5t6.5 15.5q0 49 -34.5 83.5t-83 34.5t-83 -34.5t-34.5 -83.5q0 -42 27 -74.5t68 -40.5v-11h-62
q-7 6 -16 6h-184q-25 0 -46 -12t-33 -33.5t-12 -45.5v-254q0 -6 3 -11t8 -8t11 -3h102l-18 -226q0 -10 6.5 -17t15.5 -7h510q10 0 16.5 7t5.5 17l-17 226h102q9 0 15.5 6.5t6.5 15.5v254q0 37 -26.5 64t-64.5 27zM594 524q-4 -10 -9.5 -19t-13.5 -16t-17 -12.5t-19.5 -8
t-22.5 -2.5q-13 0 -26 4t-23.5 12t-19 18.5t-12.5 23.5h163zM852 251h-84l-8 107q-1 9 -8 15t-16 5.5t-15 -7.5t-5 -16l28 -354h-463l28 354q0 6 -2.5 11t-7 8.5t-10.5 3.5q-9 1 -16 -5t-8 -15l-8 -107h-84v232q0 19 14 33t33 14h164q8 -46 44 -77t84 -31t84.5 31t44.5 77
h164q13 0 23.5 -6.5t17 -17.5t6.5 -23v-232z" />
    <glyph glyph-name="uniE661" unicode="&#xe661;" 
d="M960 374q0 10 -2.5 20t-7.5 18t-12 15t-15 11.5t-17.5 7.5t-19.5 3v205q0 44 -31 75t-74 31h-539q-28 0 -52.5 -14.5t-38.5 -38.5t-14 -53v-205q-30 -2 -51 -23.5t-21 -51t21 -51t51 -23.5v-184q0 -10 6.5 -16.5t16.5 -6.5h18v-28q0 -20 7.5 -31t18.5 -17q15 -7 45 -7h26
q13 0 21.5 1t22 5.5t21 17t7.5 31.5v28h329v-28q0 -35 27 -48q15 -7 45 -7h26q12 0 20.5 1t22.5 5.5t21 17t7 31.5v28h18q10 0 16.5 6.5t6.5 16.5v184q31 0 52.5 22t21.5 52zM111 374.5q0 11.5 7.5 19.5t18.5 9v-57q-11 1 -18.5 9t-7.5 19.5zM301 65v-6v-1q-2 -1 -8.5 -1.5
t-17.5 -0.5h-26q-22 0 -25 2q-1 2 -1 7v28h78v-28zM800 65q0 -4 -1 -6v-1h-3q-2 -1 -5 -1.5t-7 -0.5h-10h-26q-22 0 -25 2q-1 2 -1 7v28h78v-28zM841 265h-120q-6 0 -11.5 -3t-8.5 -8.5t-3 -11.5q0 -9 6.5 -16t16.5 -7h120v-81h-659v81h120q5 0 9 2t7 5t5 7t2 9
q0 10 -6.5 16.5t-16.5 6.5h-120v93h659v-93zM841 404h-659v250q0 25 17.5 42.5t42.5 17.5h539q25 0 42.5 -17.5t17.5 -42.5v-250zM886 345v58q4 0 7.5 -1t7 -3t6 -4.5t4 -5.5t2.5 -7t1 -7.5t-1 -7.5t-2.5 -7t-4 -5.5t-6 -4.5t-7 -3t-7.5 -2z" />
    <glyph glyph-name="uniE662" unicode="&#xe662;" 
d="M904 196l-302 374q1 12 1 17q0 102 -72 173.5t-173 71.5q-67 0 -123.5 -32.5t-89 -89t-32.5 -123.5q0 -25 5 -49t14 -46t22.5 -42t30 -36.5t36.5 -29.5t41.5 -22.5t46 -14.5t49.5 -5h4h3q2 0 3 0.5t4 0.5h3l374 -302q8 -6 17 -6q6 0 11 2t9 6l21 21q0 -14 -4 -25
q-11 -29 -49 -45q-9 -4 -21 -3.5t-22.5 2.5t-28 9t-28 12t-32.5 15t-34.5 16t-36.5 15.5t-40 14t-41 9.5t-44 5t-44 -2t-47 -9.5t-47 -20.5t-49 -32q-9 -7 -10 -18t6 -20t18 -10.5t20 5.5q25 20 51.5 32t48.5 17t49 3.5t45.5 -5t46.5 -13.5t42.5 -16.5t42.5 -20.5
q24 -11 36.5 -16.5t32 -13t35.5 -10.5t31 -3q7 0 14 1t13.5 2.5t13.5 4.5q60 25 79 76q15 42 0 91l48 48q7 8 8 18.5t-6 18.5zM167 587q0 79 56 135t135 56t134.5 -56t55.5 -135t-55.5 -134.5t-134.5 -55.5t-135 55.5t-56 134.5zM764 99l-321 259q50 18 88 56t56 88
l259 -321l-39 -39l-4 -4q-2 -2 -4 -5zM600 380q-5 5 -12 7t-14 0t-12 -7q-8 -8 -8 -19t8 -19l59 -60q4 -3 9 -5.5t10 -2.5q11 0 19 8q3 4 5 7.5t3 8t0 8.5t-3 8t-5 7z" />
    <glyph glyph-name="uniE663" unicode="&#xe663;" 
d="M749 399q14 11 27 23.5t23.5 26.5t19 30t14.5 32.5t9 34t3 35.5q0 93 -65.5 159t-158.5 66q-35 0 -67.5 -10.5t-59.5 -29.5t-48 -45q-26 7 -52 7q-84 0 -144 -60t-60 -145q0 -49 20.5 -91.5t56.5 -71.5q-63 -32 -101 -92t-38 -131v-149q0 -10 7.5 -17.5t17.5 -7.5h200
h267h250q7 0 12.5 3.5t9 9.5t3.5 12v165q0 54 -18 102t-51 85t-77 59zM178 137q0 45 19.5 85t55 69t79.5 40q17 5 18 23q1 8 -3.5 15t-11.5 10q-44 17 -69.5 56t-25.5 88q0 42 20.5 78t56 56.5t77.5 20.5h8q5 0 9 -0.5t8 -1.5q-7 -14 -12 -29.5t-7.5 -32t-2.5 -33.5
q0 -55 23.5 -102.5t64.5 -78.5q-35 -17 -64 -43t-49.5 -57.5t-32 -69t-11.5 -77.5v-140h-150v124zM845 13h-467v140q0 76 49 137.5t124 80.5q4 1 7.5 3t6 5t4 7t1.5 8q0 8 -4 14.5t-12 9.5q-49 20 -78 64t-29 99q0 48 23.5 88t63.5 63.5t87 23.5t87 -23.5t63.5 -63.5
t23.5 -88q0 -53 -32 -97.5t-83 -65.5q-17 -6 -16 -24.5t19 -22.5q73 -19 117.5 -79t44.5 -139v-140z" />
    <glyph glyph-name="uniE664" unicode="&#xe664;" 
d="M861 552h-49l4 88q2 40 -25 69q-28 29 -70 29h-420q-7 0 -13.5 -1t-12.5 -2.5t-12 -4t-11.5 -5.5t-10.5 -7t-10 -9q-27 -29 -25 -69l5 -88h-49q-31 0 -50.5 -23.5t-19.5 -59.5v-346q0 -34 17.5 -57.5t44.5 -26.5v0q0 -13 9.5 -22.5t22.5 -9.5h77q13 0 22 9.5t9 22.5h436
q0 -13 9 -22.5t22 -9.5h77q13 0 22.5 9.5t9.5 22.5h-1v1q28 3 45.5 26.5t17.5 56.5v346q0 14 -3.5 26.5t-10 23t-15 18t-19.5 11.5t-23 4zM260 85h-98q-8 0 -13 6t-7.5 14t-2.5 18v346q0 14 5.5 25t17.5 11h94h3q0 -1 1 -1q10 -1 17.5 -12t7.5 -26v-1l14 -204l13 -176h-52z
M664 85h-306l-9 140h325zM686 393v-1l-1 -1l-8 -119h-332l-8 119v1v1l-6 74q0 23 -10 42t-27 30.5t-37 11.5l-4 92q-1 9 2.5 18t9.5 16q7 7 16.5 10.5t19.5 3.5h420q7 0 14 -1.5t12.5 -5t9.5 -7.5q14 -14 13 -34l-5 -92q-20 0 -37 -11.5t-27 -30.5t-10 -42zM885 123
q0 -15 -6.5 -26.5t-17.5 -11.5h-150l11 162l16 218v1q0 15 7 26t18 12l1 1h3h94q12 0 18 -10.5t6 -25.5v-346z" />
    </font>
</defs>
</svg>
